<?xml version="1.0" encoding="UTF-8" standalone="no"?><svg xmlns="http://www.w3.org/2000/svg" xmlns:xlink="http://www.w3.org/1999/xlink" clip-rule="evenodd" stroke-miterlimit="4.00" viewBox="0 0 793 595"><desc>SVG generated by Keynote</desc><defs></defs><g transform="matrix(1.00, 0.00, -0.00, -1.00, 0.0, 595.0)"><path d="M 0.0 595.0 L 793.0 595.0 L 793.0 0.0 L 0.0 0.0 Z M 0.0 595.0 " fill="#FCFFCD"></path><g><clipPath id="clip-266"><path d="M 38.2 415.8 L 170.6 415.8 L 170.6 468.9 L 38.2 468.9 Z M 38.2 415.8 "></path></clipPath><g clip-path="url(#clip-266)"><path d="M 39.6 425.5 L 39.6 459.1 C 39.6 463.7 43.4 467.5 48.0 467.5 L 160.9 467.5 C 165.5 467.5 169.2 463.7 169.2 459.1 L 169.2 425.5 C 169.2 420.9 165.5 417.1 160.9 417.1 L 48.0 417.1 C 43.4 417.1 39.6 420.9 39.6 425.5 Z M 39.6 425.5 " fill="#FFE41A"></path><path d="M 0.0 42.0 L 0.0 8.4 C 0.0 3.8 3.8 0.0 8.4 0.0 L 121.2 0.0 C 125.9 0.0 129.6 3.8 129.6 8.4 L 129.6 42.0 C 129.6 46.6 125.9 50.4 121.2 50.4 L 8.4 50.4 C 3.8 50.4 0.0 46.6 0.0 42.0 Z M 0.0 42.0 " fill="none" stroke="#3464A4" stroke-width="0.75" stroke-linejoin="round" transform="matrix(1.00, 0.00, 0.00, -1.00, 39.6, 467.5)"></path></g></g><g><clipPath id="clip-267"><path d="M 67.3 430.2 L 141.5 430.2 L 141.5 454.0 L 67.3 454.0 Z M 67.3 430.2 "></path></clipPath><g clip-path="url(#clip-267)"><text xml:space="preserve" font-family="ArialMT" font-size="14.0" fill="#000000" transform="matrix(1.00, 0.00, -0.00, -1.00, 72.0, 438.0)">S</text><text xml:space="preserve" font-family="ArialMT" font-size="14.0" fill="#000000" transform="matrix(1.00, 0.00, -0.00, -1.00, 81.3, 438.0)">e</text><text xml:space="preserve" font-family="ArialMT" font-size="14.0" fill="#000000" transform="matrix(1.00, 0.00, -0.00, -1.00, 89.1, 438.0)">l</text><text xml:space="preserve" font-family="ArialMT" font-size="14.0" fill="#000000" transform="matrix(1.00, 0.00, -0.00, -1.00, 92.2, 438.0)">e</text><text xml:space="preserve" font-family="ArialMT" font-size="14.0" fill="#000000" transform="matrix(1.00, 0.00, -0.00, -1.00, 100.0, 438.0)">c</text><text xml:space="preserve" font-family="ArialMT" font-size="14.0" fill="#000000" transform="matrix(1.00, 0.00, -0.00, -1.00, 107.0, 438.0)">t</text><text xml:space="preserve" font-family="ArialMT" font-size="14.0" fill="#000000" transform="matrix(1.00, 0.00, -0.00, -1.00, 110.9, 438.0)"> </text><text xml:space="preserve" font-family="ArialMT" font-size="14.0" fill="#000000" transform="matrix(1.00, 0.00, -0.00, -1.00, 114.8, 438.0)">t</text><text xml:space="preserve" font-family="ArialMT" font-size="14.0" fill="#000000" transform="matrix(1.00, 0.00, -0.00, -1.00, 118.7, 438.0)">o</text><text xml:space="preserve" font-family="ArialMT" font-size="14.0" fill="#000000" transform="matrix(1.00, 0.00, -0.00, -1.00, 126.5, 438.0)">o</text><text xml:space="preserve" font-family="ArialMT" font-size="14.0" fill="#000000" transform="matrix(1.00, 0.00, -0.00, -1.00, 134.3, 438.0)">l</text></g></g><g><clipPath id="clip-268"><path d="M 110.4 494.7 L 786.2 494.7 L 786.2 563.8 L 110.4 563.8 Z M 110.4 494.7 "></path></clipPath><g clip-path="url(#clip-268)"><image xlink:href="../../FCB7A3F6-D6E9-456C-A436-11BAA2F5EC0D/assets/3308021C0DA317AAB9D4CF0DC7FC78E2.png" width="676.00" height="69.00" transform="matrix(1.00, 0.00, -0.00, -1.00, 110.0, 564.0)"></image></g></g><g><clipPath id="clip-269"><path d="M 29.0 495.1 L 96.6 495.1 L 96.6 563.2 L 29.0 563.2 Z M 29.0 495.1 "></path></clipPath><g clip-path="url(#clip-269)"><image xlink:href="../../A1F6999C-80BC-4BA1-BC51-913A7CCC883C/assets/FE6CFAE5429A0D0E86C9E8836D0464AA.png" width="69.00" height="69.00" transform="matrix(0.99, 0.00, -0.00, -0.99, 29.0, 563.0)"></image></g></g><image xlink:href="../../0943F8AC-3227-4925-B631-91C80ACF0871/assets/08AF95E6F914A24988BBE948F8179BA2.png" width="206.00" height="143.00" transform="matrix(1.00, 0.00, -0.00, -1.00, 210.0, 235.0)"></image><g><clipPath id="clip-270"><path d="M 191.4 364.0 L 432.2 364.0 L 432.2 468.9 L 191.4 468.9 Z M 191.4 364.0 "></path></clipPath><g clip-path="url(#clip-270)"><path d="M 192.8 467.5 L 192.8 365.4 L 391.2 365.4 L 430.9 382.4 L 430.9 467.5 Z M 192.8 467.5 " fill="#F7E91A"></path><path d="M 0.0 0.0 L 0.0 102.1 L 198.4 102.1 L 238.1 85.1 L 238.1 0.0 Z M 0.0 0.0 " fill="none" stroke="#000000" stroke-width="0.75" stroke-linejoin="round" transform="matrix(1.00, 0.00, 0.00, -1.00, 192.8, 467.5)"></path></g></g><g><clipPath id="clip-271"><path d="M 390.2 364.4 L 431.9 364.4 L 431.9 383.4 L 390.2 383.4 Z M 390.2 364.4 "></path></clipPath><g clip-path="url(#clip-271)"><path d="M 391.2 365.4 L 401.5 381.8 C 405.4 379.2 416.0 379.2 430.9 382.4 Z M 391.2 365.4 " fill="#C5BA14"></path></g></g><g><clipPath id="clip-272"><path d="M 389.9 364.2 L 432.0 364.2 L 432.0 383.8 L 389.9 383.8 Z M 389.9 364.2 "></path></clipPath><g clip-path="url(#clip-272)"><path d="M 0.0 17.0 L 10.3 0.6 C 14.2 3.2 24.8 3.2 39.7 0.0 " fill="none" stroke="#000000" stroke-width="0.75" stroke-linejoin="round" transform="matrix(1.00, 0.00, 0.00, -1.00, 391.2, 382.4)"></path></g></g><g><clipPath id="clip-273"><path d="M 192.4 383.7 L 431.2 383.7 L 431.2 467.8 L 192.4 467.8 Z M 192.4 383.7 "></path></clipPath><g clip-path="url(#clip-273)"><text xml:space="preserve" font-family="ArialMT" font-size="14.0" fill="#000000" transform="matrix(1.00, 0.00, -0.00, -1.00, 196.0, 451.0)">E</text><text xml:space="preserve" font-family="ArialMT" font-size="14.0" fill="#000000" transform="matrix(1.00, 0.00, -0.00, -1.00, 205.3, 451.0)">x</text><text xml:space="preserve" font-family="ArialMT" font-size="14.0" fill="#000000" transform="matrix(1.00, 0.00, -0.00, -1.00, 212.3, 451.0)">a</text><text xml:space="preserve" font-family="ArialMT" font-size="14.0" fill="#000000" transform="matrix(1.00, 0.00, -0.00, -1.00, 220.1, 451.0)">m</text><text xml:space="preserve" font-family="ArialMT" font-size="14.0" fill="#000000" transform="matrix(1.00, 0.00, -0.00, -1.00, 231.8, 451.0)">p</text><text xml:space="preserve" font-family="ArialMT" font-size="14.0" fill="#000000" transform="matrix(1.00, 0.00, -0.00, -1.00, 239.6, 451.0)">l</text><text xml:space="preserve" font-family="ArialMT" font-size="14.0" fill="#000000" transform="matrix(1.00, 0.00, -0.00, -1.00, 242.7, 451.0)">e</text><text xml:space="preserve" font-family="ArialMT" font-size="14.0" fill="#000000" transform="matrix(1.00, 0.00, -0.00, -1.00, 250.5, 451.0)"> </text><text xml:space="preserve" font-family="ArialMT" font-size="14.0" fill="#000000" transform="matrix(1.00, 0.00, -0.00, -1.00, 254.4, 451.0)">r</text><text xml:space="preserve" font-family="ArialMT" font-size="14.0" fill="#000000" transform="matrix(1.00, 0.00, -0.00, -1.00, 259.0, 451.0)">o</text><text xml:space="preserve" font-family="ArialMT" font-size="14.0" fill="#000000" transform="matrix(1.00, 0.00, -0.00, -1.00, 266.8, 451.0)">a</text><text xml:space="preserve" font-family="ArialMT" font-size="14.0" fill="#000000" transform="matrix(1.00, 0.00, -0.00, -1.00, 274.6, 451.0)">d</text><text xml:space="preserve" font-family="ArialMT" font-size="14.0" fill="#000000" transform="matrix(1.00, 0.00, -0.00, -1.00, 282.4, 451.0)">s</text><text xml:space="preserve" font-family="ArialMT" font-size="14.0" fill="#000000" transform="matrix(1.00, 0.00, -0.00, -1.00, 289.4, 451.0)">:</text><text xml:space="preserve" font-family="ArialMT" font-size="14.0" fill="#000000" transform="matrix(1.00, 0.00, -0.00, -1.00, 293.3, 451.0)"> </text><text xml:space="preserve" font-family="ArialMT" font-size="14.0" fill="#000000" transform="matrix(1.00, 0.00, -0.00, -1.00, 196.0, 436.0)">T</text><text xml:space="preserve" font-family="ArialMT" font-size="14.0" fill="#000000" transform="matrix(1.00, 0.00, -0.00, -1.00, 203.0, 436.0)">a</text><text xml:space="preserve" font-family="ArialMT" font-size="14.0" fill="#000000" transform="matrix(1.00, 0.00, -0.00, -1.00, 210.8, 436.0)">s</text><text xml:space="preserve" font-family="ArialMT" font-size="14.0" fill="#000000" transform="matrix(1.00, 0.00, -0.00, -1.00, 217.8, 436.0)">k</text><text xml:space="preserve" font-family="ArialMT" font-size="14.0" fill="#000000" transform="matrix(1.00, 0.00, -0.00, -1.00, 224.8, 436.0)"> </text><text xml:space="preserve" font-family="ArialMT" font-size="14.0" fill="#000000" transform="matrix(1.00, 0.00, -0.00, -1.00, 228.7, 436.0)">i</text><text xml:space="preserve" font-family="ArialMT" font-size="14.0" fill="#000000" transform="matrix(1.00, 0.00, -0.00, -1.00, 231.8, 436.0)">s</text><text xml:space="preserve" font-family="ArialMT" font-size="14.0" fill="#000000" transform="matrix(1.00, 0.00, -0.00, -1.00, 238.8, 436.0)"> </text><text xml:space="preserve" font-family="ArialMT" font-size="14.0" fill="#000000" transform="matrix(1.00, 0.00, -0.00, -1.00, 242.7, 436.0)">e</text><text xml:space="preserve" font-family="ArialMT" font-size="14.0" fill="#000000" transform="matrix(1.00, 0.00, -0.00, -1.00, 250.5, 436.0)">.</text><text xml:space="preserve" font-family="ArialMT" font-size="14.0" fill="#000000" transform="matrix(1.00, 0.00, -0.00, -1.00, 254.3, 436.0)">g</text><text xml:space="preserve" font-family="ArialMT" font-size="14.0" fill="#000000" transform="matrix(1.00, 0.00, -0.00, -1.00, 262.1, 436.0)">.</text><text xml:space="preserve" font-family="ArialMT" font-size="14.0" fill="#000000" transform="matrix(1.00, 0.00, -0.00, -1.00, 266.0, 436.0)"> </text><text xml:space="preserve" font-family="ArialMT" font-size="14.0" fill="#000000" transform="matrix(1.00, 0.00, -0.00, -1.00, 269.9, 436.0)">M</text><text xml:space="preserve" font-family="ArialMT" font-size="14.0" fill="#000000" transform="matrix(1.00, 0.00, -0.00, -1.00, 281.6, 436.0)">a</text><text xml:space="preserve" font-family="ArialMT" font-size="14.0" fill="#000000" transform="matrix(1.00, 0.00, -0.00, -1.00, 289.4, 436.0)">p</text><text xml:space="preserve" font-family="ArialMT" font-size="14.0" fill="#000000" transform="matrix(1.00, 0.00, -0.00, -1.00, 297.2, 436.0)"> </text><text xml:space="preserve" font-family="ArialMT" font-size="14.0" fill="#000000" transform="matrix(1.00, 0.00, -0.00, -1.00, 301.0, 436.0)">r</text><text xml:space="preserve" font-family="ArialMT" font-size="14.0" fill="#000000" transform="matrix(1.00, 0.00, -0.00, -1.00, 305.7, 436.0)">o</text><text xml:space="preserve" font-family="ArialMT" font-size="14.0" fill="#000000" transform="matrix(1.00, 0.00, -0.00, -1.00, 313.5, 436.0)">a</text><text xml:space="preserve" font-family="ArialMT" font-size="14.0" fill="#000000" transform="matrix(1.00, 0.00, -0.00, -1.00, 321.3, 436.0)">d</text><text xml:space="preserve" font-family="ArialMT" font-size="14.0" fill="#000000" transform="matrix(1.00, 0.00, -0.00, -1.00, 329.1, 436.0)">s</text><text xml:space="preserve" font-family="ArialMT" font-size="14.0" fill="#000000" transform="matrix(1.00, 0.00, -0.00, -1.00, 336.1, 436.0)"> </text><text xml:space="preserve" font-family="ArialMT" font-size="14.0" fill="#000000" transform="matrix(1.00, 0.00, -0.00, -1.00, 340.0, 436.0)">a</text><text xml:space="preserve" font-family="ArialMT" font-size="14.0" fill="#000000" transform="matrix(1.00, 0.00, -0.00, -1.00, 347.7, 436.0)">s</text><text xml:space="preserve" font-family="ArialMT" font-size="14.0" fill="#000000" transform="matrix(1.00, 0.00, -0.00, -1.00, 354.7, 436.0)"> </text><text xml:space="preserve" font-family="ArialMT" font-size="14.0" fill="#000000" transform="matrix(1.00, 0.00, -0.00, -1.00, 196.0, 421.0)">“</text><text xml:space="preserve" font-family="ArialMT" font-size="14.0" fill="#000000" transform="matrix(1.00, 0.00, -0.00, -1.00, 200.7, 421.0)">r</text><text xml:space="preserve" font-family="ArialMT" font-size="14.0" fill="#000000" transform="matrix(1.00, 0.00, -0.00, -1.00, 205.3, 421.0)">e</text><text xml:space="preserve" font-family="ArialMT" font-size="14.0" fill="#000000" transform="matrix(1.00, 0.00, -0.00, -1.00, 213.1, 421.0)">s</text><text xml:space="preserve" font-family="ArialMT" font-size="14.0" fill="#000000" transform="matrix(1.00, 0.00, -0.00, -1.00, 220.1, 421.0)">i</text><text xml:space="preserve" font-family="ArialMT" font-size="14.0" fill="#000000" transform="matrix(1.00, 0.00, -0.00, -1.00, 223.2, 421.0)">d</text><text xml:space="preserve" font-family="ArialMT" font-size="14.0" fill="#000000" transform="matrix(1.00, 0.00, -0.00, -1.00, 231.0, 421.0)">e</text><text xml:space="preserve" font-family="ArialMT" font-size="14.0" fill="#000000" transform="matrix(1.00, 0.00, -0.00, -1.00, 238.8, 421.0)">n</text><text xml:space="preserve" font-family="ArialMT" font-size="14.0" fill="#000000" transform="matrix(1.00, 0.00, -0.00, -1.00, 246.6, 421.0)">t</text><text xml:space="preserve" font-family="ArialMT" font-size="14.0" fill="#000000" transform="matrix(1.00, 0.00, -0.00, -1.00, 250.5, 421.0)">i</text><text xml:space="preserve" font-family="ArialMT" font-size="14.0" fill="#000000" transform="matrix(1.00, 0.00, -0.00, -1.00, 253.6, 421.0)">a</text><text xml:space="preserve" font-family="ArialMT" font-size="14.0" fill="#000000" transform="matrix(1.00, 0.00, -0.00, -1.00, 261.4, 421.0)">l</text><text xml:space="preserve" font-family="ArialMT" font-size="14.0" fill="#000000" transform="matrix(1.00, 0.00, -0.00, -1.00, 264.5, 421.0)">”</text><text xml:space="preserve" font-family="ArialMT" font-size="14.0" fill="#000000" transform="matrix(1.00, 0.00, -0.00, -1.00, 269.1, 421.0)"> </text><text xml:space="preserve" font-family="ArialMT" font-size="14.0" fill="#000000" transform="matrix(1.00, 0.00, -0.00, -1.00, 196.3, 406.1)">1</text><text xml:space="preserve" font-family="ArialMT" font-size="14.0" fill="#000000" transform="matrix(1.00, 0.00, -0.00, -1.00, 204.1, 406.1)">.</text><text xml:space="preserve" font-family="ArialMT" font-size="14.0" fill="#000000" transform="matrix(1.00, 0.00, -0.00, -1.00, 208.0, 406.0)">S</text><text xml:space="preserve" font-family="ArialMT" font-size="14.0" fill="#000000" transform="matrix(1.00, 0.00, -0.00, -1.00, 217.3, 406.0)">e</text><text xml:space="preserve" font-family="ArialMT" font-size="14.0" fill="#000000" transform="matrix(1.00, 0.00, -0.00, -1.00, 225.1, 406.0)">l</text><text xml:space="preserve" font-family="ArialMT" font-size="14.0" fill="#000000" transform="matrix(1.00, 0.00, -0.00, -1.00, 228.2, 406.0)">e</text><text xml:space="preserve" font-family="ArialMT" font-size="14.0" fill="#000000" transform="matrix(1.00, 0.00, -0.00, -1.00, 236.0, 406.0)">c</text><text xml:space="preserve" font-family="ArialMT" font-size="14.0" fill="#000000" transform="matrix(1.00, 0.00, -0.00, -1.00, 243.0, 406.0)">t</text><text xml:space="preserve" font-family="ArialMT" font-size="14.0" fill="#000000" transform="matrix(1.00, 0.00, -0.00, -1.00, 246.9, 406.0)"> </text><text xml:space="preserve" font-family="ArialMT" font-size="14.0" fill="#000000" transform="matrix(1.00, 0.00, -0.00, -1.00, 250.8, 406.0)">r</text><text xml:space="preserve" font-family="ArialMT" font-size="14.0" fill="#000000" transform="matrix(1.00, 0.00, -0.00, -1.00, 255.5, 406.0)">o</text><text xml:space="preserve" font-family="ArialMT" font-size="14.0" fill="#000000" transform="matrix(1.00, 0.00, -0.00, -1.00, 263.3, 406.0)">a</text><text xml:space="preserve" font-family="ArialMT" font-size="14.0" fill="#000000" transform="matrix(1.00, 0.00, -0.00, -1.00, 271.0, 406.0)">d</text><text xml:space="preserve" font-family="ArialMT" font-size="14.0" fill="#000000" transform="matrix(1.00, 0.00, -0.00, -1.00, 278.8, 406.0)">s</text><text xml:space="preserve" font-family="ArialMT" font-size="14.0" fill="#000000" transform="matrix(1.00, 0.00, -0.00, -1.00, 285.8, 406.0)">=</text><text xml:space="preserve" font-family="ArialMT" font-size="14.0" fill="#000000" transform="matrix(1.00, 0.00, -0.00, -1.00, 294.0, 406.0)">“</text><text xml:space="preserve" font-family="ArialMT" font-size="14.0" fill="#000000" transform="matrix(1.00, 0.00, -0.00, -1.00, 298.7, 406.0)">r</text><text xml:space="preserve" font-family="ArialMT" font-size="14.0" fill="#000000" transform="matrix(1.00, 0.00, -0.00, -1.00, 303.3, 406.0)">e</text><text xml:space="preserve" font-family="ArialMT" font-size="14.0" fill="#000000" transform="matrix(1.00, 0.00, -0.00, -1.00, 311.1, 406.0)">s</text><text xml:space="preserve" font-family="ArialMT" font-size="14.0" fill="#000000" transform="matrix(1.00, 0.00, -0.00, -1.00, 318.1, 406.0)">i</text><text xml:space="preserve" font-family="ArialMT" font-size="14.0" fill="#000000" transform="matrix(1.00, 0.00, -0.00, -1.00, 321.2, 406.0)">d</text><text xml:space="preserve" font-family="ArialMT" font-size="14.0" fill="#000000" transform="matrix(1.00, 0.00, -0.00, -1.00, 329.0, 406.0)">e</text><text xml:space="preserve" font-family="ArialMT" font-size="14.0" fill="#000000" transform="matrix(1.00, 0.00, -0.00, -1.00, 336.8, 406.0)">n</text><text xml:space="preserve" font-family="ArialMT" font-size="14.0" fill="#000000" transform="matrix(1.00, 0.00, -0.00, -1.00, 344.6, 406.0)">t</text><text xml:space="preserve" font-family="ArialMT" font-size="14.0" fill="#000000" transform="matrix(1.00, 0.00, -0.00, -1.00, 348.5, 406.0)">i</text><text xml:space="preserve" font-family="ArialMT" font-size="14.0" fill="#000000" transform="matrix(1.00, 0.00, -0.00, -1.00, 351.6, 406.0)">a</text><text xml:space="preserve" font-family="ArialMT" font-size="14.0" fill="#000000" transform="matrix(1.00, 0.00, -0.00, -1.00, 359.4, 406.0)">l</text><text xml:space="preserve" font-family="ArialMT" font-size="14.0" fill="#000000" transform="matrix(1.00, 0.00, -0.00, -1.00, 362.5, 406.0)">”</text><text xml:space="preserve" font-family="ArialMT" font-size="14.0" fill="#000000" transform="matrix(1.00, 0.00, -0.00, -1.00, 367.2, 406.0)">.</text><text xml:space="preserve" font-family="ArialMT" font-size="14.0" fill="#000000" transform="matrix(1.00, 0.00, -0.00, -1.00, 371.0, 406.0)"> </text><text xml:space="preserve" font-family="ArialMT" font-size="14.0" fill="#000000" transform="matrix(1.00, 0.00, -0.00, -1.00, 196.3, 391.1)">2</text><text xml:space="preserve" font-family="ArialMT" font-size="14.0" fill="#000000" transform="matrix(1.00, 0.00, -0.00, -1.00, 204.1, 391.1)">.</text><text xml:space="preserve" font-family="ArialMT" font-size="14.0" fill="#000000" transform="matrix(1.00, 0.00, -0.00, -1.00, 208.0, 391.0)">S</text><text xml:space="preserve" font-family="ArialMT" font-size="14.0" fill="#000000" transform="matrix(1.00, 0.00, -0.00, -1.00, 217.3, 391.0)">o</text><text xml:space="preserve" font-family="ArialMT" font-size="14.0" fill="#000000" transform="matrix(1.00, 0.00, -0.00, -1.00, 225.1, 391.0)">m</text><text xml:space="preserve" font-family="ArialMT" font-size="14.0" fill="#000000" transform="matrix(1.00, 0.00, -0.00, -1.00, 236.8, 391.0)">e</text><text xml:space="preserve" font-family="ArialMT" font-size="14.0" fill="#000000" transform="matrix(1.00, 0.00, -0.00, -1.00, 244.6, 391.0)"> </text><text xml:space="preserve" font-family="ArialMT" font-size="14.0" fill="#000000" transform="matrix(1.00, 0.00, -0.00, -1.00, 248.5, 391.0)">r</text><text xml:space="preserve" font-family="ArialMT" font-size="14.0" fill="#000000" transform="matrix(1.00, 0.00, -0.00, -1.00, 253.1, 391.0)">o</text><text xml:space="preserve" font-family="ArialMT" font-size="14.0" fill="#000000" transform="matrix(1.00, 0.00, -0.00, -1.00, 260.9, 391.0)">a</text><text xml:space="preserve" font-family="ArialMT" font-size="14.0" fill="#000000" transform="matrix(1.00, 0.00, -0.00, -1.00, 268.7, 391.0)">d</text><text xml:space="preserve" font-family="ArialMT" font-size="14.0" fill="#000000" transform="matrix(1.00, 0.00, -0.00, -1.00, 276.5, 391.0)">s</text><text xml:space="preserve" font-family="ArialMT" font-size="14.0" fill="#000000" transform="matrix(1.00, 0.00, -0.00, -1.00, 283.5, 391.0)"> </text><text xml:space="preserve" font-family="ArialMT" font-size="14.0" fill="#000000" transform="matrix(1.00, 0.00, -0.00, -1.00, 287.4, 391.0)">a</text><text xml:space="preserve" font-family="ArialMT" font-size="14.0" fill="#000000" transform="matrix(1.00, 0.00, -0.00, -1.00, 295.2, 391.0)">r</text><text xml:space="preserve" font-family="ArialMT" font-size="14.0" fill="#000000" transform="matrix(1.00, 0.00, -0.00, -1.00, 299.8, 391.0)">e</text><text xml:space="preserve" font-family="ArialMT" font-size="14.0" fill="#000000" transform="matrix(1.00, 0.00, -0.00, -1.00, 307.6, 391.0)"> </text><text xml:space="preserve" font-family="ArialMT" font-size="14.0" fill="#000000" transform="matrix(1.00, 0.00, -0.00, -1.00, 311.5, 391.0)">n</text><text xml:space="preserve" font-family="ArialMT" font-size="14.0" fill="#000000" transform="matrix(1.00, 0.00, -0.00, -1.00, 319.3, 391.0)">o</text><text xml:space="preserve" font-family="ArialMT" font-size="14.0" fill="#000000" transform="matrix(1.00, 0.00, -0.00, -1.00, 327.1, 391.0)">t</text><text xml:space="preserve" font-family="ArialMT" font-size="14.0" fill="#000000" transform="matrix(1.00, 0.00, -0.00, -1.00, 331.0, 391.0)"> </text><text xml:space="preserve" font-family="ArialMT" font-size="14.0" fill="#000000" transform="matrix(1.00, 0.00, -0.00, -1.00, 334.9, 391.0)">s</text><text xml:space="preserve" font-family="ArialMT" font-size="14.0" fill="#000000" transform="matrix(1.00, 0.00, -0.00, -1.00, 341.9, 391.0)">e</text><text xml:space="preserve" font-family="ArialMT" font-size="14.0" fill="#000000" transform="matrix(1.00, 0.00, -0.00, -1.00, 349.6, 391.0)">l</text><text xml:space="preserve" font-family="ArialMT" font-size="14.0" fill="#000000" transform="matrix(1.00, 0.00, -0.00, -1.00, 352.8, 391.0)">e</text><text xml:space="preserve" font-family="ArialMT" font-size="14.0" fill="#000000" transform="matrix(1.00, 0.00, -0.00, -1.00, 360.5, 391.0)">t</text><text xml:space="preserve" font-family="ArialMT" font-size="14.0" fill="#000000" transform="matrix(1.00, 0.00, -0.00, -1.00, 364.4, 391.0)">e</text><text xml:space="preserve" font-family="ArialMT" font-size="14.0" fill="#000000" transform="matrix(1.00, 0.00, -0.00, -1.00, 372.2, 391.0)">d</text><text xml:space="preserve" font-family="ArialMT" font-size="14.0" fill="#000000" transform="matrix(1.00, 0.00, -0.00, -1.00, 380.0, 391.0)">:</text><text xml:space="preserve" font-family="ArialMT" font-size="14.0" fill="#000000" transform="matrix(1.00, 0.00, -0.00, -1.00, 383.9, 391.0)"> </text></g></g></g></svg>