<?xml version="1.0" encoding="UTF-8" standalone="no"?><svg xmlns="http://www.w3.org/2000/svg" xmlns:xlink="http://www.w3.org/1999/xlink" clip-rule="evenodd" stroke-miterlimit="4.00" viewBox="0 0 793 595"><desc>SVG generated by Keynote</desc><defs></defs><g transform="matrix(1.00, 0.00, -0.00, -1.00, 0.0, 595.0)"><path d="M 0.0 595.0 L 793.0 595.0 L 793.0 0.0 L 0.0 0.0 Z M 0.0 595.0 " fill="#FCFFCD"></path><g><clipPath id="clip-226"><path d="M 110.4 494.7 L 786.2 494.7 L 786.2 563.8 L 110.4 563.8 Z M 110.4 494.7 "></path></clipPath><g clip-path="url(#clip-226)"><image xlink:href="../../43E342BD-8160-40BB-8AA8-15F1466CEA6B/assets/F95633A86C760CC516FEE7D9FA6024C0.png" width="676.00" height="69.00" transform="matrix(1.00, 0.00, -0.00, -1.00, 110.0, 564.0)"></image></g></g><g><clipPath id="clip-227"><path d="M 29.0 495.1 L 96.6 495.1 L 96.6 563.2 L 29.0 563.2 Z M 29.0 495.1 "></path></clipPath><g clip-path="url(#clip-227)"><image xlink:href="../../A1F6999C-80BC-4BA1-BC51-913A7CCC883C/assets/FE6CFAE5429A0D0E86C9E8836D0464AA.png" width="69.00" height="69.00" transform="matrix(0.99, 0.00, -0.00, -0.99, 29.0, 563.0)"></image></g></g><image xlink:href="../../43E342BD-8160-40BB-8AA8-15F1466CEA6B/assets/501D03E07A27F59F5AC61D67100024E9.png" width="121.00" height="40.00" transform="matrix(1.00, 0.00, -0.00, -1.03, 107.0, 300.0)"></image><g><clipPath id="clip-228"><path d="M 106.4 421.2 L 228.1 421.2 L 228.1 463.2 L 106.4 463.2 Z M 106.4 421.2 "></path></clipPath><g clip-path="url(#clip-228)"><path d="M 107.8 429.2 L 107.8 455.3 C 107.8 458.9 110.7 461.9 114.3 461.9 L 220.2 461.9 C 223.8 461.9 226.8 458.9 226.8 455.3 L 226.8 429.2 C 226.8 425.6 223.8 422.6 220.2 422.6 L 114.3 422.6 C 110.7 422.6 107.8 425.6 107.8 429.2 Z M 107.8 429.2 " fill="#FFE41A"></path><path d="M 0.0 32.7 L 0.0 6.5 C 0.0 2.9 2.9 0.0 6.5 0.0 L 112.5 0.0 C 116.1 0.0 119.0 2.9 119.0 6.5 L 119.0 32.7 C 119.0 36.3 116.1 39.2 112.5 39.2 L 6.5 39.2 C 2.9 39.2 0.0 36.3 0.0 32.7 Z M 0.0 32.7 " fill="none" stroke="#3464A4" stroke-width="0.75" stroke-linejoin="round" transform="matrix(1.00, 0.00, 0.00, -1.00, 107.8, 461.9)"></path></g></g><g><clipPath id="clip-229"><path d="M 122.8 430.1 L 211.7 430.1 L 211.7 453.9 L 122.8 453.9 Z M 122.8 430.1 "></path></clipPath><g clip-path="url(#clip-229)"><text xml:space="preserve" font-family="Arial-BoldMT" font-weight="bold" font-size="14.0" fill="#000000" transform="matrix(1.00, 0.00, -0.00, -1.00, 127.0, 437.0)">U</text><text xml:space="preserve" font-family="Arial-BoldMT" font-weight="bold" font-size="14.0" fill="#000000" transform="matrix(1.00, 0.00, -0.00, -1.00, 137.1, 437.0)">p</text><text xml:space="preserve" font-family="Arial-BoldMT" font-weight="bold" font-size="14.0" fill="#000000" transform="matrix(1.00, 0.00, -0.00, -1.00, 145.7, 437.0)">l</text><text xml:space="preserve" font-family="Arial-BoldMT" font-weight="bold" font-size="14.0" fill="#000000" transform="matrix(1.00, 0.00, -0.00, -1.00, 149.5, 437.0)">o</text><text xml:space="preserve" font-family="Arial-BoldMT" font-weight="bold" font-size="14.0" fill="#000000" transform="matrix(1.00, 0.00, -0.00, -1.00, 158.1, 437.0)">a</text><text xml:space="preserve" font-family="Arial-BoldMT" font-weight="bold" font-size="14.0" fill="#000000" transform="matrix(1.00, 0.00, -0.00, -1.00, 165.9, 437.0)">d</text><text xml:space="preserve" font-family="Arial-BoldMT" font-weight="bold" font-size="14.0" fill="#000000" transform="matrix(1.00, 0.00, -0.00, -1.00, 174.4, 437.0)"> </text><text xml:space="preserve" font-family="Arial-BoldMT" font-weight="bold" font-size="14.0" fill="#000000" transform="matrix(1.00, 0.00, -0.00, -1.00, 178.3, 437.0)">d</text><text xml:space="preserve" font-family="Arial-BoldMT" font-weight="bold" font-size="14.0" fill="#000000" transform="matrix(1.00, 0.00, -0.00, -1.00, 186.9, 437.0)">a</text><text xml:space="preserve" font-family="Arial-BoldMT" font-weight="bold" font-size="14.0" fill="#000000" transform="matrix(1.00, 0.00, -0.00, -1.00, 194.7, 437.0)">t</text><text xml:space="preserve" font-family="Arial-BoldMT" font-weight="bold" font-size="14.0" fill="#000000" transform="matrix(1.00, 0.00, -0.00, -1.00, 199.3, 437.0)">a</text></g></g><g><clipPath id="clip-230"><path d="M 152.5 300.0 L 182.0 300.0 L 182.0 421.9 L 152.5 421.9 Z M 152.5 300.0 "></path></clipPath><g clip-path="url(#clip-230)"><path d="M 153.9 314.8 L 160.6 314.8 L 160.6 420.5 L 173.9 420.5 L 173.9 314.8 L 180.6 314.8 L 167.2 301.4 Z M 153.9 314.8 " fill="#00B7FF"></path><path d="M 0.0 105.7 L 6.7 105.7 L 6.7 0.0 L 20.1 0.0 L 20.1 105.7 L 26.8 105.7 L 13.4 119.1 Z M 0.0 105.7 " fill="none" stroke="#000000" stroke-width="0.75" stroke-linejoin="round" transform="matrix(1.00, 0.00, 0.00, -1.00, 153.9, 420.5)"></path></g></g><g><clipPath id="clip-231"><path d="M 159.1 390.9 L 175.4 390.9 L 175.4 421.9 L 159.1 421.9 Z M 159.1 390.9 "></path></clipPath><g clip-path="url(#clip-231)"><text xml:space="preserve" font-family="ArialMT" font-size="18.0" fill="#000000" transform="matrix(1.00, 0.00, -0.00, -1.00, 164.0, 400.0)"> </text></g></g><image xlink:href="../../43E342BD-8160-40BB-8AA8-15F1466CEA6B/assets/7D369CA46029AD71B8D73A424E2C07CD.png" width="159.00" height="118.00" transform="matrix(0.99, 0.00, -0.00, -1.01, 437.0, 479.0)"></image><g><clipPath id="clip-232"><path d="M 531.6 154.2 L 727.1 154.2 L 727.1 242.0 L 531.6 242.0 Z M 531.6 154.2 "></path></clipPath><g clip-path="url(#clip-232)"><path d="M 533.0 240.6 L 533.0 155.6 L 693.6 155.6 L 725.8 169.8 L 725.8 240.6 Z M 533.0 240.6 " fill="#F7E91A"></path><path d="M 0.0 0.0 L 0.0 85.0 L 160.6 85.0 L 192.8 70.8 L 192.8 0.0 Z M 0.0 0.0 " fill="none" stroke="#000000" stroke-width="0.75" stroke-linejoin="round" transform="matrix(1.00, 0.00, 0.00, -1.00, 533.0, 240.6)"></path></g></g><g><clipPath id="clip-233"><path d="M 692.6 154.6 L 726.8 154.6 L 726.8 170.8 L 692.6 170.8 Z M 692.6 154.6 "></path></clipPath><g clip-path="url(#clip-233)"><path d="M 693.6 155.6 L 701.9 169.3 C 705.2 167.1 713.7 167.1 725.8 169.8 Z M 693.6 155.6 " fill="#C5BA14"></path></g></g><g><clipPath id="clip-234"><path d="M 692.3 154.4 L 726.8 154.4 L 726.8 171.2 L 692.3 171.2 Z M 692.3 154.4 "></path></clipPath><g clip-path="url(#clip-234)"><path d="M 0.0 14.2 L 8.3 0.5 C 11.5 2.7 20.1 2.7 32.1 0.0 " fill="none" stroke="#000000" stroke-width="0.75" stroke-linejoin="round" transform="matrix(1.00, 0.00, 0.00, -1.00, 693.6, 169.8)"></path></g></g><g><clipPath id="clip-235"><path d="M 532.7 156.8 L 726.1 156.8 L 726.1 240.9 L 532.7 240.9 Z M 532.7 156.8 "></path></clipPath><g clip-path="url(#clip-235)"><text xml:space="preserve" font-family="Arial-BoldMT" font-weight="bold" font-size="14.0" fill="#000000" transform="matrix(1.00, 0.00, -0.00, -1.00, 537.0, 224.0)">V</text><text xml:space="preserve" font-family="Arial-BoldMT" font-weight="bold" font-size="14.0" fill="#000000" transform="matrix(1.00, 0.00, -0.00, -1.00, 545.6, 224.0)">a</text><text xml:space="preserve" font-family="Arial-BoldMT" font-weight="bold" font-size="14.0" fill="#000000" transform="matrix(1.00, 0.00, -0.00, -1.00, 553.4, 224.0)">l</text><text xml:space="preserve" font-family="Arial-BoldMT" font-weight="bold" font-size="14.0" fill="#000000" transform="matrix(1.00, 0.00, -0.00, -1.00, 557.2, 224.0)">i</text><text xml:space="preserve" font-family="Arial-BoldMT" font-weight="bold" font-size="14.0" fill="#000000" transform="matrix(1.00, 0.00, -0.00, -1.00, 561.1, 224.0)">d</text><text xml:space="preserve" font-family="Arial-BoldMT" font-weight="bold" font-size="14.0" fill="#000000" transform="matrix(1.00, 0.00, -0.00, -1.00, 569.7, 224.0)">a</text><text xml:space="preserve" font-family="Arial-BoldMT" font-weight="bold" font-size="14.0" fill="#000000" transform="matrix(1.00, 0.00, -0.00, -1.00, 577.5, 224.0)">t</text><text xml:space="preserve" font-family="Arial-BoldMT" font-weight="bold" font-size="14.0" fill="#000000" transform="matrix(1.00, 0.00, -0.00, -1.00, 582.1, 224.0)">e</text><text xml:space="preserve" font-family="ArialMT" font-size="14.0" fill="#000000" transform="matrix(1.00, 0.00, -0.00, -1.00, 589.9, 224.0)">:</text><text xml:space="preserve" font-family="Arial-BoldMT" font-weight="bold" font-size="14.0" fill="#000000" transform="matrix(1.00, 0.00, -0.00, -1.00, 593.8, 224.0)"> </text><text xml:space="preserve" font-family="ArialMT" font-size="14.0" fill="#000000" transform="matrix(1.00, 0.00, -0.00, -1.00, 536.6, 209.4)">•</text><text xml:space="preserve" font-family="ArialMT" font-size="14.0" fill="#000000" transform="matrix(1.00, 0.00, -0.00, -1.00, 542.0, 209.0)">c</text><text xml:space="preserve" font-family="ArialMT" font-size="14.0" fill="#000000" transform="matrix(1.00, 0.00, -0.00, -1.00, 549.0, 209.0)">o</text><text xml:space="preserve" font-family="ArialMT" font-size="14.0" fill="#000000" transform="matrix(1.00, 0.00, -0.00, -1.00, 556.8, 209.0)">n</text><text xml:space="preserve" font-family="ArialMT" font-size="14.0" fill="#000000" transform="matrix(1.00, 0.00, -0.00, -1.00, 564.6, 209.0)">t</text><text xml:space="preserve" font-family="ArialMT" font-size="14.0" fill="#000000" transform="matrix(1.00, 0.00, -0.00, -1.00, 568.5, 209.0)">e</text><text xml:space="preserve" font-family="ArialMT" font-size="14.0" fill="#000000" transform="matrix(1.00, 0.00, -0.00, -1.00, 576.3, 209.0)">n</text><text xml:space="preserve" font-family="ArialMT" font-size="14.0" fill="#000000" transform="matrix(1.00, 0.00, -0.00, -1.00, 584.0, 209.0)">t</text><text xml:space="preserve" font-family="ArialMT" font-size="14.0" fill="#000000" transform="matrix(1.00, 0.00, -0.00, -1.00, 587.9, 209.0)"> </text><text xml:space="preserve" font-family="ArialMT" font-size="14.0" fill="#000000" transform="matrix(1.00, 0.00, -0.00, -1.00, 591.8, 209.0)">o</text><text xml:space="preserve" font-family="ArialMT" font-size="14.0" fill="#000000" transform="matrix(1.00, 0.00, -0.00, -1.00, 599.6, 209.0)">f</text><text xml:space="preserve" font-family="ArialMT" font-size="14.0" fill="#000000" transform="matrix(1.00, 0.00, -0.00, -1.00, 603.5, 209.0)"> </text><text xml:space="preserve" font-family="ArialMT" font-size="14.0" fill="#000000" transform="matrix(1.00, 0.00, -0.00, -1.00, 607.4, 209.0)">m</text><text xml:space="preserve" font-family="ArialMT" font-size="14.0" fill="#000000" transform="matrix(1.00, 0.00, -0.00, -1.00, 619.0, 209.0)">a</text><text xml:space="preserve" font-family="ArialMT" font-size="14.0" fill="#000000" transform="matrix(1.00, 0.00, -0.00, -1.00, 626.8, 209.0)">p</text><text xml:space="preserve" font-family="ArialMT" font-size="14.0" fill="#000000" transform="matrix(1.00, 0.00, -0.00, -1.00, 634.6, 209.0)"> </text><text xml:space="preserve" font-family="ArialMT" font-size="14.0" fill="#000000" transform="matrix(1.00, 0.00, -0.00, -1.00, 638.5, 209.0)">(</text><text xml:space="preserve" font-family="ArialMT" font-size="14.0" fill="#000000" transform="matrix(1.00, 0.00, -0.00, -1.00, 643.2, 209.0)">b</text><text xml:space="preserve" font-family="ArialMT" font-size="14.0" fill="#000000" transform="matrix(1.00, 0.00, -0.00, -1.00, 651.0, 209.0)">u</text><text xml:space="preserve" font-family="ArialMT" font-size="14.0" fill="#000000" transform="matrix(1.00, 0.00, -0.00, -1.00, 658.7, 209.0)">i</text><text xml:space="preserve" font-family="ArialMT" font-size="14.0" fill="#000000" transform="matrix(1.00, 0.00, -0.00, -1.00, 661.9, 209.0)">l</text><text xml:space="preserve" font-family="ArialMT" font-size="14.0" fill="#000000" transform="matrix(1.00, 0.00, -0.00, -1.00, 665.0, 209.0)">d</text><text xml:space="preserve" font-family="ArialMT" font-size="14.0" fill="#000000" transform="matrix(1.00, 0.00, -0.00, -1.00, 672.8, 209.0)">i</text><text xml:space="preserve" font-family="ArialMT" font-size="14.0" fill="#000000" transform="matrix(1.00, 0.00, -0.00, -1.00, 675.9, 209.0)">n</text><text xml:space="preserve" font-family="ArialMT" font-size="14.0" fill="#000000" transform="matrix(1.00, 0.00, -0.00, -1.00, 683.7, 209.0)">g</text><text xml:space="preserve" font-family="ArialMT" font-size="14.0" fill="#000000" transform="matrix(1.00, 0.00, -0.00, -1.00, 691.5, 209.0)">s</text><text xml:space="preserve" font-family="ArialMT" font-size="14.0" fill="#000000" transform="matrix(1.00, 0.00, -0.00, -1.00, 698.5, 209.0)">,</text><text xml:space="preserve" font-family="ArialMT" font-size="14.0" fill="#000000" transform="matrix(1.00, 0.00, -0.00, -1.00, 702.3, 209.0)"> </text><text xml:space="preserve" font-family="ArialMT" font-size="14.0" fill="#000000" transform="matrix(1.00, 0.00, -0.00, -1.00, 537.0, 194.0)">h</text><text xml:space="preserve" font-family="ArialMT" font-size="14.0" fill="#000000" transform="matrix(1.00, 0.00, -0.00, -1.00, 544.8, 194.0)">i</text><text xml:space="preserve" font-family="ArialMT" font-size="14.0" fill="#000000" transform="matrix(1.00, 0.00, -0.00, -1.00, 547.9, 194.0)">g</text><text xml:space="preserve" font-family="ArialMT" font-size="14.0" fill="#000000" transform="matrix(1.00, 0.00, -0.00, -1.00, 555.7, 194.0)">h</text><text xml:space="preserve" font-family="ArialMT" font-size="14.0" fill="#000000" transform="matrix(1.00, 0.00, -0.00, -1.00, 563.5, 194.0)">w</text><text xml:space="preserve" font-family="ArialMT" font-size="14.0" fill="#000000" transform="matrix(1.00, 0.00, -0.00, -1.00, 573.6, 194.0)">a</text><text xml:space="preserve" font-family="ArialMT" font-size="14.0" fill="#000000" transform="matrix(1.00, 0.00, -0.00, -1.00, 581.4, 194.0)">y</text><text xml:space="preserve" font-family="ArialMT" font-size="14.0" fill="#000000" transform="matrix(1.00, 0.00, -0.00, -1.00, 588.4, 194.0)">s</text><text xml:space="preserve" font-family="ArialMT" font-size="14.0" fill="#000000" transform="matrix(1.00, 0.00, -0.00, -1.00, 595.4, 194.0)">,</text><text xml:space="preserve" font-family="ArialMT" font-size="14.0" fill="#000000" transform="matrix(1.00, 0.00, -0.00, -1.00, 599.3, 194.0)"> </text><text xml:space="preserve" font-family="ArialMT" font-size="14.0" fill="#000000" transform="matrix(1.00, 0.00, -0.00, -1.00, 603.2, 194.0)">.</text><text xml:space="preserve" font-family="ArialMT" font-size="14.0" fill="#000000" transform="matrix(1.00, 0.00, -0.00, -1.00, 607.0, 194.0)">.</text><text xml:space="preserve" font-family="ArialMT" font-size="14.0" fill="#000000" transform="matrix(1.00, 0.00, -0.00, -1.00, 610.9, 194.0)">)</text><text xml:space="preserve" font-family="ArialMT" font-size="14.0" fill="#000000" transform="matrix(1.00, 0.00, -0.00, -1.00, 615.6, 194.0)"> </text><text xml:space="preserve" font-family="ArialMT" font-size="14.0" fill="#000000" transform="matrix(1.00, 0.00, -0.00, -1.00, 536.6, 179.2)">•</text><text xml:space="preserve" font-family="ArialMT" font-size="14.0" fill="#000000" transform="matrix(1.00, 0.00, -0.00, -1.00, 542.0, 179.0)">c</text><text xml:space="preserve" font-family="ArialMT" font-size="14.0" fill="#000000" transform="matrix(1.00, 0.00, -0.00, -1.00, 549.0, 179.0)">o</text><text xml:space="preserve" font-family="ArialMT" font-size="14.0" fill="#000000" transform="matrix(1.00, 0.00, -0.00, -1.00, 556.8, 179.0)">m</text><text xml:space="preserve" font-family="ArialMT" font-size="14.0" fill="#000000" transform="matrix(1.00, 0.00, -0.00, -1.00, 568.5, 179.0)">p</text><text xml:space="preserve" font-family="ArialMT" font-size="14.0" fill="#000000" transform="matrix(1.00, 0.00, -0.00, -1.00, 576.2, 179.0)">l</text><text xml:space="preserve" font-family="ArialMT" font-size="14.0" fill="#000000" transform="matrix(1.00, 0.00, -0.00, -1.00, 579.4, 179.0)">e</text><text xml:space="preserve" font-family="ArialMT" font-size="14.0" fill="#000000" transform="matrix(1.00, 0.00, -0.00, -1.00, 587.1, 179.0)">t</text><text xml:space="preserve" font-family="ArialMT" font-size="14.0" fill="#000000" transform="matrix(1.00, 0.00, -0.00, -1.00, 591.0, 179.0)">e</text><text xml:space="preserve" font-family="ArialMT" font-size="14.0" fill="#000000" transform="matrix(1.00, 0.00, -0.00, -1.00, 598.8, 179.0)">n</text><text xml:space="preserve" font-family="ArialMT" font-size="14.0" fill="#000000" transform="matrix(1.00, 0.00, -0.00, -1.00, 606.6, 179.0)">e</text><text xml:space="preserve" font-family="ArialMT" font-size="14.0" fill="#000000" transform="matrix(1.00, 0.00, -0.00, -1.00, 614.4, 179.0)">s</text><text xml:space="preserve" font-family="ArialMT" font-size="14.0" fill="#000000" transform="matrix(1.00, 0.00, -0.00, -1.00, 621.4, 179.0)">s</text><text xml:space="preserve" font-family="ArialMT" font-size="14.0" fill="#000000" transform="matrix(1.00, 0.00, -0.00, -1.00, 628.4, 179.0)"> </text><text xml:space="preserve" font-family="ArialMT" font-size="14.0" fill="#000000" transform="matrix(1.00, 0.00, -0.00, -1.00, 536.6, 164.2)">•</text><text xml:space="preserve" font-family="ArialMT" font-size="14.0" fill="#000000" transform="matrix(1.00, 0.00, -0.00, -1.00, 542.0, 164.0)">c</text><text xml:space="preserve" font-family="ArialMT" font-size="14.0" fill="#000000" transform="matrix(1.00, 0.00, -0.00, -1.00, 549.0, 164.0)">l</text><text xml:space="preserve" font-family="ArialMT" font-size="14.0" fill="#000000" transform="matrix(1.00, 0.00, -0.00, -1.00, 552.1, 164.0)">o</text><text xml:space="preserve" font-family="ArialMT" font-size="14.0" fill="#000000" transform="matrix(1.00, 0.00, -0.00, -1.00, 559.9, 164.0)">u</text><text xml:space="preserve" font-family="ArialMT" font-size="14.0" fill="#000000" transform="matrix(1.00, 0.00, -0.00, -1.00, 567.7, 164.0)">d</text><text xml:space="preserve" font-family="ArialMT" font-size="14.0" fill="#000000" transform="matrix(1.00, 0.00, -0.00, -1.00, 575.5, 164.0)">s</text><text xml:space="preserve" font-family="ArialMT" font-size="14.0" fill="#000000" transform="matrix(1.00, 0.00, -0.00, -1.00, 582.5, 164.0)"> </text><text xml:space="preserve" font-family="ArialMT" font-size="14.0" fill="#000000" transform="matrix(1.00, 0.00, -0.00, -1.00, 586.4, 164.0)">%</text></g></g><image xlink:href="../../43E342BD-8160-40BB-8AA8-15F1466CEA6B/assets/59FDCD75177307D50D8B81323F56DA25.png" width="159.00" height="91.00" transform="matrix(0.99, 0.00, -0.00, -1.00, 437.0, 348.0)"></image><g><clipPath id="clip-236"><path d="M 106.4 175.6 L 228.1 175.6 L 228.1 217.5 L 106.4 217.5 Z M 106.4 175.6 "></path></clipPath><g clip-path="url(#clip-236)"><path d="M 107.8 183.5 L 107.8 209.6 C 107.8 213.2 110.7 216.1 114.3 216.1 L 220.2 216.1 C 223.8 216.1 226.8 213.2 226.8 209.6 L 226.8 183.5 C 226.8 179.9 223.8 177.0 220.2 177.0 L 114.3 177.0 C 110.7 177.0 107.8 179.9 107.8 183.5 Z M 107.8 183.5 " fill="#990A1A"></path><path d="M 0.0 32.6 L 0.0 6.5 C 0.0 2.9 2.9 0.0 6.5 0.0 L 112.5 0.0 C 116.1 0.0 119.0 2.9 119.0 6.5 L 119.0 32.6 C 119.0 36.2 116.1 39.1 112.5 39.1 L 6.5 39.1 C 2.9 39.1 0.0 36.2 0.0 32.6 Z M 0.0 32.6 " fill="none" stroke="#3464A4" stroke-width="0.75" stroke-linejoin="round" transform="matrix(1.00, 0.00, 0.00, -1.00, 107.8, 216.1)"></path></g></g><g><clipPath id="clip-237"><path d="M 130.6 184.4 L 203.9 184.4 L 203.9 208.2 L 130.6 208.2 Z M 130.6 184.4 "></path></clipPath><g clip-path="url(#clip-237)"><text xml:space="preserve" font-family="Arial-BoldMT" font-weight="bold" font-size="14.0" fill="#FFFFFF" transform="matrix(1.00, 0.00, -0.00, -1.00, 135.0, 192.0)">C</text><text xml:space="preserve" font-family="Arial-BoldMT" font-weight="bold" font-size="14.0" fill="#FFFFFF" transform="matrix(1.00, 0.00, -0.00, -1.00, 145.1, 192.0)">o</text><text xml:space="preserve" font-family="Arial-BoldMT" font-weight="bold" font-size="14.0" fill="#FFFFFF" transform="matrix(1.00, 0.00, -0.00, -1.00, 153.7, 192.0)">m</text><text xml:space="preserve" font-family="Arial-BoldMT" font-weight="bold" font-size="14.0" fill="#FFFFFF" transform="matrix(1.00, 0.00, -0.00, -1.00, 166.1, 192.0)">m</text><text xml:space="preserve" font-family="Arial-BoldMT" font-weight="bold" font-size="14.0" fill="#FFFFFF" transform="matrix(1.00, 0.00, -0.00, -1.00, 178.6, 192.0)">e</text><text xml:space="preserve" font-family="Arial-BoldMT" font-weight="bold" font-size="14.0" fill="#FFFFFF" transform="matrix(1.00, 0.00, -0.00, -1.00, 186.4, 192.0)">n</text><text xml:space="preserve" font-family="Arial-BoldMT" font-weight="bold" font-size="14.0" fill="#FFFFFF" transform="matrix(1.00, 0.00, -0.00, -1.00, 194.9, 192.0)">t</text></g></g><g><clipPath id="clip-238"><path d="M 106.4 92.4 L 228.1 92.4 L 228.1 134.4 L 106.4 134.4 Z M 106.4 92.4 "></path></clipPath><g clip-path="url(#clip-238)"><path d="M 107.8 100.3 L 107.8 126.5 C 107.8 130.1 110.7 133.0 114.3 133.0 L 220.2 133.0 C 223.8 133.0 226.8 130.1 226.8 126.5 L 226.8 100.3 C 226.8 96.7 223.8 93.8 220.2 93.8 L 114.3 93.8 C 110.7 93.8 107.8 96.7 107.8 100.3 Z M 107.8 100.3 " fill="#990A1A"></path><path d="M 0.0 32.7 L 0.0 6.5 C 0.0 2.9 2.9 0.0 6.5 0.0 L 112.5 0.0 C 116.1 0.0 119.0 2.9 119.0 6.5 L 119.0 32.7 C 119.0 36.3 116.1 39.2 112.5 39.2 L 6.5 39.2 C 2.9 39.2 0.0 36.3 0.0 32.7 Z M 0.0 32.7 " fill="none" stroke="#3464A4" stroke-width="0.75" stroke-linejoin="round" transform="matrix(1.00, 0.00, 0.00, -1.00, 107.8, 133.0)"></path></g></g><g><clipPath id="clip-239"><path d="M 125.5 101.2 L 209.0 101.2 L 209.0 125.1 L 125.5 125.1 Z M 125.5 101.2 "></path></clipPath><g clip-path="url(#clip-239)"><text xml:space="preserve" font-family="Arial-BoldMT" font-weight="bold" font-size="14.0" fill="#FFFFFF" transform="matrix(1.00, 0.00, -0.00, -1.00, 130.0, 109.0)">(</text><text xml:space="preserve" font-family="Arial-BoldMT" font-weight="bold" font-size="14.0" fill="#FFFFFF" transform="matrix(1.00, 0.00, -0.00, -1.00, 134.7, 109.0)">i</text><text xml:space="preserve" font-family="Arial-BoldMT" font-weight="bold" font-size="14.0" fill="#FFFFFF" transform="matrix(1.00, 0.00, -0.00, -1.00, 138.5, 109.0)">n</text><text xml:space="preserve" font-family="Arial-BoldMT" font-weight="bold" font-size="14.0" fill="#FFFFFF" transform="matrix(1.00, 0.00, -0.00, -1.00, 147.1, 109.0)">)</text><text xml:space="preserve" font-family="Arial-BoldMT" font-weight="bold" font-size="14.0" fill="#FFFFFF" transform="matrix(1.00, 0.00, -0.00, -1.00, 151.8, 109.0)">V</text><text xml:space="preserve" font-family="Arial-BoldMT" font-weight="bold" font-size="14.0" fill="#FFFFFF" transform="matrix(1.00, 0.00, -0.00, -1.00, 160.3, 109.0)">a</text><text xml:space="preserve" font-family="Arial-BoldMT" font-weight="bold" font-size="14.0" fill="#FFFFFF" transform="matrix(1.00, 0.00, -0.00, -1.00, 168.1, 109.0)">l</text><text xml:space="preserve" font-family="Arial-BoldMT" font-weight="bold" font-size="14.0" fill="#FFFFFF" transform="matrix(1.00, 0.00, -0.00, -1.00, 172.0, 109.0)">i</text><text xml:space="preserve" font-family="Arial-BoldMT" font-weight="bold" font-size="14.0" fill="#FFFFFF" transform="matrix(1.00, 0.00, -0.00, -1.00, 175.9, 109.0)">d</text><text xml:space="preserve" font-family="Arial-BoldMT" font-weight="bold" font-size="14.0" fill="#FFFFFF" transform="matrix(1.00, 0.00, -0.00, -1.00, 184.4, 109.0)">a</text><text xml:space="preserve" font-family="Arial-BoldMT" font-weight="bold" font-size="14.0" fill="#FFFFFF" transform="matrix(1.00, 0.00, -0.00, -1.00, 192.2, 109.0)">t</text><text xml:space="preserve" font-family="Arial-BoldMT" font-weight="bold" font-size="14.0" fill="#FFFFFF" transform="matrix(1.00, 0.00, -0.00, -1.00, 196.9, 109.0)">e</text></g></g><g><clipPath id="clip-240"><path d="M 355.8 154.2 L 528.0 154.2 L 528.0 242.0 L 355.8 242.0 Z M 355.8 154.2 "></path></clipPath><g clip-path="url(#clip-240)"><path d="M 357.1 240.6 L 357.1 155.6 L 498.4 155.6 L 526.6 169.8 L 526.6 240.6 Z M 357.1 240.6 " fill="#F7E91A"></path><path d="M 0.0 0.0 L 0.0 85.0 L 141.2 85.0 L 169.5 70.8 L 169.5 0.0 Z M 0.0 0.0 " fill="none" stroke="#000000" stroke-width="0.75" stroke-linejoin="round" transform="matrix(1.00, 0.00, 0.00, -1.00, 357.1, 240.6)"></path></g></g><g><clipPath id="clip-241"><path d="M 497.4 154.6 L 527.6 154.6 L 527.6 170.8 L 497.4 170.8 Z M 497.4 154.6 "></path></clipPath><g clip-path="url(#clip-241)"><path d="M 498.4 155.6 L 505.7 169.3 C 508.5 167.1 516.0 167.1 526.6 169.8 Z M 498.4 155.6 " fill="#C5BA14"></path></g></g><g><clipPath id="clip-242"><path d="M 497.0 154.4 L 527.7 154.4 L 527.7 171.2 L 497.0 171.2 Z M 497.0 154.4 "></path></clipPath><g clip-path="url(#clip-242)"><path d="M 0.0 14.2 L 7.3 0.5 C 10.1 2.7 17.7 2.7 28.2 0.0 " fill="none" stroke="#000000" stroke-width="0.75" stroke-linejoin="round" transform="matrix(1.00, 0.00, 0.00, -1.00, 498.4, 169.8)"></path></g></g><g><clipPath id="clip-243"><path d="M 356.8 171.9 L 526.9 171.9 L 526.9 240.9 L 356.8 240.9 Z M 356.8 171.9 "></path></clipPath><g clip-path="url(#clip-243)"><text xml:space="preserve" font-family="Arial-BoldMT" font-weight="bold" font-size="14.0" fill="#000000" transform="matrix(1.00, 0.00, -0.00, -1.00, 361.0, 224.0)">I</text><text xml:space="preserve" font-family="Arial-BoldMT" font-weight="bold" font-size="14.0" fill="#000000" transform="matrix(1.00, 0.00, -0.00, -1.00, 364.9, 224.0)">n</text><text xml:space="preserve" font-family="Arial-BoldMT" font-weight="bold" font-size="14.0" fill="#000000" transform="matrix(1.00, 0.00, -0.00, -1.00, 373.4, 224.0)">v</text><text xml:space="preserve" font-family="Arial-BoldMT" font-weight="bold" font-size="14.0" fill="#000000" transform="matrix(1.00, 0.00, -0.00, -1.00, 381.2, 224.0)">a</text><text xml:space="preserve" font-family="Arial-BoldMT" font-weight="bold" font-size="14.0" fill="#000000" transform="matrix(1.00, 0.00, -0.00, -1.00, 389.0, 224.0)">l</text><text xml:space="preserve" font-family="Arial-BoldMT" font-weight="bold" font-size="14.0" fill="#000000" transform="matrix(1.00, 0.00, -0.00, -1.00, 392.9, 224.0)">i</text><text xml:space="preserve" font-family="Arial-BoldMT" font-weight="bold" font-size="14.0" fill="#000000" transform="matrix(1.00, 0.00, -0.00, -1.00, 396.8, 224.0)">d</text><text xml:space="preserve" font-family="Arial-BoldMT" font-weight="bold" font-size="14.0" fill="#000000" transform="matrix(1.00, 0.00, -0.00, -1.00, 405.3, 224.0)">a</text><text xml:space="preserve" font-family="Arial-BoldMT" font-weight="bold" font-size="14.0" fill="#000000" transform="matrix(1.00, 0.00, -0.00, -1.00, 413.1, 224.0)">t</text><text xml:space="preserve" font-family="Arial-BoldMT" font-weight="bold" font-size="14.0" fill="#000000" transform="matrix(1.00, 0.00, -0.00, -1.00, 417.8, 224.0)">e</text><text xml:space="preserve" font-family="ArialMT" font-size="14.0" fill="#000000" transform="matrix(1.00, 0.00, -0.00, -1.00, 425.6, 224.0)">:</text><text xml:space="preserve" font-family="ArialMT" font-size="14.0" fill="#000000" transform="matrix(1.00, 0.00, -0.00, -1.00, 429.5, 224.0)"> </text><text xml:space="preserve" font-family="Arial-BoldMT" font-weight="bold" font-size="14.0" fill="#000000" transform="matrix(1.00, 0.00, -0.00, -1.00, 433.4, 224.0)"> </text><text xml:space="preserve" font-family="ArialMT" font-size="14.0" fill="#000000" transform="matrix(1.00, 0.00, -0.00, -1.00, 360.7, 209.4)">•</text><text xml:space="preserve" font-family="ArialMT" font-size="14.0" fill="#000000" transform="matrix(1.00, 0.00, -0.00, -1.00, 366.0, 209.0)">I</text><text xml:space="preserve" font-family="ArialMT" font-size="14.0" fill="#000000" transform="matrix(1.00, 0.00, -0.00, -1.00, 369.9, 209.0)">n</text><text xml:space="preserve" font-family="ArialMT" font-size="14.0" fill="#000000" transform="matrix(1.00, 0.00, -0.00, -1.00, 377.7, 209.0)">c</text><text xml:space="preserve" font-family="ArialMT" font-size="14.0" fill="#000000" transform="matrix(1.00, 0.00, -0.00, -1.00, 384.7, 209.0)">o</text><text xml:space="preserve" font-family="ArialMT" font-size="14.0" fill="#000000" transform="matrix(1.00, 0.00, -0.00, -1.00, 392.5, 209.0)">m</text><text xml:space="preserve" font-family="ArialMT" font-size="14.0" fill="#000000" transform="matrix(1.00, 0.00, -0.00, -1.00, 404.1, 209.0)">p</text><text xml:space="preserve" font-family="ArialMT" font-size="14.0" fill="#000000" transform="matrix(1.00, 0.00, -0.00, -1.00, 411.9, 209.0)">l</text><text xml:space="preserve" font-family="ArialMT" font-size="14.0" fill="#000000" transform="matrix(1.00, 0.00, -0.00, -1.00, 415.0, 209.0)">e</text><text xml:space="preserve" font-family="ArialMT" font-size="14.0" fill="#000000" transform="matrix(1.00, 0.00, -0.00, -1.00, 422.8, 209.0)">t</text><text xml:space="preserve" font-family="ArialMT" font-size="14.0" fill="#000000" transform="matrix(1.00, 0.00, -0.00, -1.00, 426.7, 209.0)">e</text><text xml:space="preserve" font-family="ArialMT" font-size="14.0" fill="#000000" transform="matrix(1.00, 0.00, -0.00, -1.00, 434.5, 209.0)"> </text><text xml:space="preserve" font-family="ArialMT" font-size="14.0" fill="#000000" transform="matrix(1.00, 0.00, -0.00, -1.00, 360.7, 194.3)">•</text><text xml:space="preserve" font-family="ArialMT" font-size="14.0" fill="#000000" transform="matrix(1.00, 0.00, -0.00, -1.00, 366.0, 194.0)">w</text><text xml:space="preserve" font-family="ArialMT" font-size="14.0" fill="#000000" transform="matrix(1.00, 0.00, -0.00, -1.00, 376.1, 194.0)">r</text><text xml:space="preserve" font-family="ArialMT" font-size="14.0" fill="#000000" transform="matrix(1.00, 0.00, -0.00, -1.00, 380.8, 194.0)">o</text><text xml:space="preserve" font-family="ArialMT" font-size="14.0" fill="#000000" transform="matrix(1.00, 0.00, -0.00, -1.00, 388.6, 194.0)">n</text><text xml:space="preserve" font-family="ArialMT" font-size="14.0" fill="#000000" transform="matrix(1.00, 0.00, -0.00, -1.00, 396.4, 194.0)">g</text><text xml:space="preserve" font-family="ArialMT" font-size="14.0" fill="#000000" transform="matrix(1.00, 0.00, -0.00, -1.00, 404.1, 194.0)"> </text><text xml:space="preserve" font-family="ArialMT" font-size="14.0" fill="#000000" transform="matrix(1.00, 0.00, -0.00, -1.00, 408.0, 194.0)">t</text><text xml:space="preserve" font-family="ArialMT" font-size="14.0" fill="#000000" transform="matrix(1.00, 0.00, -0.00, -1.00, 411.9, 194.0)">a</text><text xml:space="preserve" font-family="ArialMT" font-size="14.0" fill="#000000" transform="matrix(1.00, 0.00, -0.00, -1.00, 419.7, 194.0)">g</text><text xml:space="preserve" font-family="ArialMT" font-size="14.0" fill="#000000" transform="matrix(1.00, 0.00, -0.00, -1.00, 427.5, 194.0)">s</text><text xml:space="preserve" font-family="ArialMT" font-size="14.0" fill="#000000" transform="matrix(1.00, 0.00, -0.00, -1.00, 434.5, 194.0)"> </text><text xml:space="preserve" font-family="ArialMT" font-size="14.0" fill="#000000" transform="matrix(1.00, 0.00, -0.00, -1.00, 360.7, 179.2)">•</text><text xml:space="preserve" font-family="ArialMT" font-size="14.0" fill="#000000" transform="matrix(1.00, 0.00, -0.00, -1.00, 366.0, 179.0)">c</text><text xml:space="preserve" font-family="ArialMT" font-size="14.0" fill="#000000" transform="matrix(1.00, 0.00, -0.00, -1.00, 373.0, 179.0)">o</text><text xml:space="preserve" font-family="ArialMT" font-size="14.0" fill="#000000" transform="matrix(1.00, 0.00, -0.00, -1.00, 380.8, 179.0)">n</text><text xml:space="preserve" font-family="ArialMT" font-size="14.0" fill="#000000" transform="matrix(1.00, 0.00, -0.00, -1.00, 388.6, 179.0)">f</text><text xml:space="preserve" font-family="ArialMT" font-size="14.0" fill="#000000" transform="matrix(1.00, 0.00, -0.00, -1.00, 392.5, 179.0)">l</text><text xml:space="preserve" font-family="ArialMT" font-size="14.0" fill="#000000" transform="matrix(1.00, 0.00, -0.00, -1.00, 395.6, 179.0)">i</text><text xml:space="preserve" font-family="ArialMT" font-size="14.0" fill="#000000" transform="matrix(1.00, 0.00, -0.00, -1.00, 398.7, 179.0)">c</text><text xml:space="preserve" font-family="ArialMT" font-size="14.0" fill="#000000" transform="matrix(1.00, 0.00, -0.00, -1.00, 405.7, 179.0)">t</text><text xml:space="preserve" font-family="ArialMT" font-size="14.0" fill="#000000" transform="matrix(1.00, 0.00, -0.00, -1.00, 409.6, 179.0)">s</text></g></g><g><clipPath id="clip-244"><path d="M 497.5 239.2 L 527.0 239.2 L 527.0 259.0 L 497.5 259.0 Z M 497.5 239.2 "></path></clipPath><g clip-path="url(#clip-244)"><path d="M 498.9 249.1 L 505.6 249.1 L 505.6 257.6 L 518.9 257.6 L 518.9 249.1 L 525.6 249.1 L 512.2 240.6 Z M 498.9 249.1 " fill="#00B7FF"></path><path d="M 0.0 8.5 L 6.7 8.5 L 6.7 0.0 L 20.1 0.0 L 20.1 8.5 L 26.8 8.5 L 13.4 17.0 Z M 0.0 8.5 " fill="none" stroke="#000000" stroke-width="0.75" stroke-linejoin="round" transform="matrix(1.00, 0.00, 0.00, -1.00, 498.9, 257.6)"></path></g></g><g><clipPath id="clip-245"><path d="M 504.1 228.0 L 520.4 228.0 L 520.4 259.1 L 504.1 259.1 Z M 504.1 228.0 "></path></clipPath><g clip-path="url(#clip-245)"><text xml:space="preserve" font-family="ArialMT" font-size="18.0" fill="#000000" transform="matrix(1.00, 0.00, -0.00, -1.00, 509.0, 237.0)"> </text></g></g><g><clipPath id="clip-246"><path d="M 537.2 239.2 L 566.8 239.2 L 566.8 259.0 L 537.2 259.0 Z M 537.2 239.2 "></path></clipPath><g clip-path="url(#clip-246)"><path d="M 538.6 249.1 L 545.3 249.1 L 545.3 257.6 L 558.7 257.6 L 558.7 249.1 L 565.4 249.1 L 552.0 240.6 Z M 538.6 249.1 " fill="#00B7FF"></path><path d="M 0.0 8.5 L 6.7 8.5 L 6.7 0.0 L 20.1 0.0 L 20.1 8.5 L 26.8 8.5 L 13.4 17.0 Z M 0.0 8.5 " fill="none" stroke="#000000" stroke-width="0.75" stroke-linejoin="round" transform="matrix(1.00, 0.00, 0.00, -1.00, 538.6, 257.6)"></path></g></g><g><clipPath id="clip-247"><path d="M 543.9 228.0 L 560.1 228.0 L 560.1 259.1 L 543.9 259.1 Z M 543.9 228.0 "></path></clipPath><g clip-path="url(#clip-247)"><text xml:space="preserve" font-family="ArialMT" font-size="18.0" fill="#000000" transform="matrix(1.00, 0.00, -0.00, -1.00, 549.0, 237.0)"> </text></g></g><image xlink:href="../../43E342BD-8160-40BB-8AA8-15F1466CEA6B/assets/D079038CCEB2F9C0DEA7ECB69A2345CE.png" width="208.00" height="59.00" transform="matrix(1.00, 0.00, -0.00, -1.00, 425.0, 139.0)"></image><g><clipPath id="clip-248"><path d="M 497.5 131.6 L 527.0 131.6 L 527.0 151.4 L 497.5 151.4 Z M 497.5 131.6 "></path></clipPath><g clip-path="url(#clip-248)"><path d="M 498.9 141.5 L 505.6 141.5 L 505.6 150.0 L 518.9 150.0 L 518.9 141.5 L 525.6 141.5 L 512.2 133.0 Z M 498.9 141.5 " fill="#00B7FF"></path><path d="M 0.0 8.5 L 6.7 8.5 L 6.7 0.0 L 20.1 0.0 L 20.1 8.5 L 26.8 8.5 L 13.4 17.0 Z M 0.0 8.5 " fill="none" stroke="#000000" stroke-width="0.75" stroke-linejoin="round" transform="matrix(1.00, 0.00, 0.00, -1.00, 498.9, 150.0)"></path></g></g><g><clipPath id="clip-249"><path d="M 504.1 120.4 L 520.4 120.4 L 520.4 151.4 L 504.1 151.4 Z M 504.1 120.4 "></path></clipPath><g clip-path="url(#clip-249)"><text xml:space="preserve" font-family="ArialMT" font-size="18.0" fill="#000000" transform="matrix(1.00, 0.00, -0.00, -1.00, 509.0, 130.0)"> </text></g></g><g><clipPath id="clip-250"><path d="M 537.2 131.6 L 566.8 131.6 L 566.8 151.4 L 537.2 151.4 Z M 537.2 131.6 "></path></clipPath><g clip-path="url(#clip-250)"><path d="M 538.6 141.5 L 545.3 141.5 L 545.3 150.0 L 558.7 150.0 L 558.7 141.5 L 565.4 141.5 L 552.0 133.0 Z M 538.6 141.5 " fill="#00B7FF"></path><path d="M 0.0 8.5 L 6.7 8.5 L 6.7 0.0 L 20.1 0.0 L 20.1 8.5 L 26.8 8.5 L 13.4 17.0 Z M 0.0 8.5 " fill="none" stroke="#000000" stroke-width="0.75" stroke-linejoin="round" transform="matrix(1.00, 0.00, 0.00, -1.00, 538.6, 150.0)"></path></g></g><g><clipPath id="clip-251"><path d="M 543.9 120.4 L 560.1 120.4 L 560.1 151.4 L 543.9 151.4 Z M 543.9 120.4 "></path></clipPath><g clip-path="url(#clip-251)"><text xml:space="preserve" font-family="ArialMT" font-size="18.0" fill="#000000" transform="matrix(1.00, 0.00, -0.00, -1.00, 549.0, 130.0)"> </text></g></g><g><clipPath id="clip-252"><path d="M 152.5 216.9 L 182.0 216.9 L 182.0 259.4 L 152.5 259.4 Z M 152.5 216.9 "></path></clipPath><g clip-path="url(#clip-252)"><path d="M 153.9 231.6 L 160.6 231.6 L 160.6 258.0 L 173.9 258.0 L 173.9 231.6 L 180.6 231.6 L 167.2 218.2 Z M 153.9 231.6 " fill="#00B7FF"></path><path d="M 0.0 26.4 L 6.7 26.4 L 6.7 0.0 L 20.1 0.0 L 20.1 26.4 L 26.8 26.4 L 13.4 39.8 Z M 0.0 26.4 " fill="none" stroke="#000000" stroke-width="0.75" stroke-linejoin="round" transform="matrix(1.00, 0.00, 0.00, -1.00, 153.9, 258.0)"></path></g></g><g><clipPath id="clip-253"><path d="M 159.1 228.4 L 175.4 228.4 L 175.4 259.4 L 159.1 259.4 Z M 159.1 228.4 "></path></clipPath><g clip-path="url(#clip-253)"><text xml:space="preserve" font-family="ArialMT" font-size="18.0" fill="#000000" transform="matrix(1.00, 0.00, -0.00, -1.00, 164.0, 238.0)"> </text></g></g><g><clipPath id="clip-254"><path d="M 152.5 133.8 L 182.0 133.8 L 182.0 176.2 L 152.5 176.2 Z M 152.5 133.8 "></path></clipPath><g clip-path="url(#clip-254)"><path d="M 153.9 148.5 L 160.6 148.5 L 160.6 174.9 L 173.9 174.9 L 173.9 148.5 L 180.6 148.5 L 167.2 135.1 Z M 153.9 148.5 " fill="#00B7FF"></path><path d="M 0.0 26.4 L 6.7 26.4 L 6.7 0.0 L 20.1 0.0 L 20.1 26.4 L 26.8 26.4 L 13.4 39.8 Z M 0.0 26.4 " fill="none" stroke="#000000" stroke-width="0.75" stroke-linejoin="round" transform="matrix(1.00, 0.00, 0.00, -1.00, 153.9, 174.9)"></path></g></g><g><clipPath id="clip-255"><path d="M 159.1 145.2 L 175.4 145.2 L 175.4 176.3 L 159.1 176.3 Z M 159.1 145.2 "></path></clipPath><g clip-path="url(#clip-255)"><text xml:space="preserve" font-family="ArialMT" font-size="18.0" fill="#000000" transform="matrix(1.00, 0.00, -0.00, -1.00, 164.0, 155.0)"> </text></g></g><g><clipPath id="clip-256"><path d="M 686.6 511.4 L 764.0 511.4 L 764.0 542.5 L 686.6 542.5 Z M 686.6 511.4 "></path></clipPath><g clip-path="url(#clip-256)"><path d="M 727.2 541.1 C 707.6 541.1 691.8 534.8 691.8 526.9 C 691.8 524.0 694.0 521.3 697.8 519.0 L 688.0 513.0 L 706.5 515.5 C 712.3 513.8 719.4 512.8 727.2 512.8 C 746.8 512.8 762.6 519.1 762.6 526.9 C 762.6 534.8 746.8 541.1 727.2 541.1 Z M 727.2 541.1 " fill="#FFE41A"></path><path d="M 35.4 0.0 C 15.9 0.0 0.0 6.4 0.0 14.2 C 0.0 17.1 2.2 19.9 6.1 22.1 L -3.8 28.1 L 14.7 25.7 C 20.6 27.3 27.7 28.4 35.4 28.4 C 55.0 28.4 70.9 22.0 70.9 14.2 C 70.9 6.4 55.0 0.0 35.4 0.0 Z M 35.4 0.0 " fill="none" stroke="#3464A4" stroke-width="0.75" stroke-linejoin="round" transform="matrix(1.00, 0.00, 0.00, -1.00, 691.8, 541.1)"></path></g></g><g><clipPath id="clip-257"><path d="M 716.7 511.1 L 737.7 511.1 L 737.7 542.2 L 716.7 542.2 Z M 716.7 511.1 "></path></clipPath><g clip-path="url(#clip-257)"><text xml:space="preserve" font-family="ArialMT" font-size="18.0" fill="#FF0000" transform="matrix(1.00, 0.00, -0.00, -1.00, 722.0, 521.0)">6</text></g></g></g></svg>