<?xml version="1.0" encoding="UTF-8" standalone="no"?><svg xmlns="http://www.w3.org/2000/svg" xmlns:xlink="http://www.w3.org/1999/xlink" clip-rule="evenodd" stroke-miterlimit="4.00" viewBox="0 0 793 595"><desc>SVG generated by Keynote</desc><defs></defs><g transform="matrix(1.00, 0.00, -0.00, -1.00, 0.0, 595.0)"><path d="M 0.0 595.0 L 793.0 595.0 L 793.0 0.0 L 0.0 0.0 Z M 0.0 595.0 " fill="#FCFFCD"></path><image xlink:href="1062121756AFC2C4BDFAD398913921D9.png" width="165.00" height="45.00" transform="matrix(1.00, 0.00, -0.00, -1.02, 510.0, 167.0)"></image><image xlink:href="234DCB7F4F1F71EB8DB8B7DBD7619497.png" width="170.00" height="110.00" transform="matrix(1.00, 0.00, -0.00, -1.01, 516.0, 275.0)"></image><image xlink:href="B055A94F5D9B80EEC09CB3060AB19011.png" width="170.00" height="106.00" transform="matrix(1.00, 0.00, -0.00, -1.00, 516.0, 382.0)"></image><image xlink:href="1A0163F3682A25AFDB13F669B6B3474D.png" width="217.00" height="71.00" transform="matrix(1.00, 0.00, -0.00, -1.01, 260.0, 491.0)"></image><image xlink:href="A65AB18937CAECC74D4E1DA63AF0B71D.png" width="659.00" height="69.00" transform="matrix(1.00, 0.00, -0.00, -1.00, 102.0, 576.0)"></image><image xlink:href="FE6CFAE5429A0D0E86C9E8836D0464AA.png" width="69.00" height="69.00" transform="matrix(0.96, 0.00, -0.00, -0.99, 23.0, 575.0)"></image><image xlink:href="B93A341E957B04C659711F8963710387.png" width="217.00" height="41.00" transform="matrix(1.00, 0.00, -0.00, -1.00, 260.0, 383.0)"></image><image xlink:href="CB42F6A461059BEADEA6D8D5B2EA92D5.png" width="217.00" height="37.00" transform="matrix(1.00, 0.00, -0.00, -1.00, 260.0, 269.0)"></image><image xlink:href="E2D2721F6741FC736099FCB668FA70B9.png" width="217.00" height="41.00" transform="matrix(1.00, 0.00, -0.00, -1.00, 260.0, 173.0)"></image><image xlink:href="75A7E850F7CF778496A3369FCBF8AF58.png" width="217.00" height="40.00" transform="matrix(1.00, 0.00, -0.00, -1.03, 260.0, 82.0)"></image><image xlink:href="19802F652BE3B56C39A7D6B9BB8DAA7A.png" width="121.00" height="40.00" transform="matrix(1.00, 0.00, -0.00, -1.00, 107.0, 381.0)"></image><g><clipPath id="clip-74"><path d="M 106.4 438.2 L 228.1 438.2 L 228.1 480.2 L 106.4 480.2 Z M 106.4 438.2 "></path></clipPath><g clip-path="url(#clip-74)"><path d="M 107.8 446.2 L 107.8 472.3 C 107.8 475.9 110.7 478.9 114.3 478.9 L 220.2 478.9 C 223.8 478.9 226.8 475.9 226.8 472.3 L 226.8 446.2 C 226.8 442.6 223.8 439.6 220.2 439.6 L 114.3 439.6 C 110.7 439.6 107.8 442.6 107.8 446.2 Z M 107.8 446.2 " fill="#990A1A"></path><path d="M 0.0 32.7 L 0.0 6.5 C 0.0 2.9 2.9 0.0 6.5 0.0 L 112.5 0.0 C 116.1 0.0 119.0 2.9 119.0 6.5 L 119.0 32.7 C 119.0 36.3 116.1 39.2 112.5 39.2 L 6.5 39.2 C 2.9 39.2 0.0 36.3 0.0 32.7 Z M 0.0 32.7 " fill="none" stroke="#3464A4" stroke-width="0.75" stroke-linejoin="round" transform="matrix(1.00, 0.00, 0.00, -1.00, 107.8, 478.9)"></path></g></g><g><clipPath id="clip-75"><path d="M 106.0 439.6 L 270.9 439.6 L 270.9 478.5 L 106.0 478.5 Z M 106.0 439.6 "></path></clipPath><g clip-path="url(#clip-75)"><text xml:space="preserve" font-family="ArialMT" font-size="14.0" fill="#FFFFFF" transform="matrix(1.00, 0.00, -0.00, -1.00, 150.0, 462.0)">O</text><text xml:space="preserve" font-family="ArialMT" font-size="14.0" fill="#FFFFFF" transform="matrix(1.00, 0.00, -0.00, -1.00, 160.9, 462.0)">p</text><text xml:space="preserve" font-family="ArialMT" font-size="14.0" fill="#FFFFFF" transform="matrix(1.00, 0.00, -0.00, -1.00, 168.7, 462.0)">e</text><text xml:space="preserve" font-family="ArialMT" font-size="14.0" fill="#FFFFFF" transform="matrix(1.00, 0.00, -0.00, -1.00, 176.5, 462.0)">n</text><text xml:space="preserve" font-family="ArialMT" font-size="14.0" fill="#FFFFFF" transform="matrix(1.00, 0.00, -0.00, -1.00, 184.2, 462.0)"> </text><text xml:space="preserve" font-family="ArialMT" font-size="14.0" fill="#FFFFFF" transform="matrix(1.00, 0.00, -0.00, -1.00, 188.1, 462.0)"> </text><text xml:space="preserve" font-family="ArialMT" font-size="14.0" fill="#FFFFFF" transform="matrix(1.00, 0.00, -0.00, -1.00, 110.0, 447.0)">t</text><text xml:space="preserve" font-family="ArialMT" font-size="14.0" fill="#FFFFFF" transform="matrix(1.00, 0.00, -0.00, -1.00, 113.9, 447.0)">a</text><text xml:space="preserve" font-family="ArialMT" font-size="14.0" fill="#FFFFFF" transform="matrix(1.00, 0.00, -0.00, -1.00, 121.7, 447.0)">s</text><text xml:space="preserve" font-family="ArialMT" font-size="14.0" fill="#FFFFFF" transform="matrix(1.00, 0.00, -0.00, -1.00, 128.7, 447.0)">k</text><text xml:space="preserve" font-family="ArialMT" font-size="14.0" fill="#FFFFFF" transform="matrix(1.00, 0.00, -0.00, -1.00, 135.7, 447.0)">s</text><text xml:space="preserve" font-family="ArialMT" font-size="14.0" fill="#FFFFFF" transform="matrix(1.00, 0.00, -0.00, -1.00, 142.7, 447.0)">.</text><text xml:space="preserve" font-family="ArialMT" font-size="14.0" fill="#FFFFFF" transform="matrix(1.00, 0.00, -0.00, -1.00, 146.6, 447.0)">h</text><text xml:space="preserve" font-family="ArialMT" font-size="14.0" fill="#FFFFFF" transform="matrix(1.00, 0.00, -0.00, -1.00, 154.4, 447.0)">o</text><text xml:space="preserve" font-family="ArialMT" font-size="14.0" fill="#FFFFFF" transform="matrix(1.00, 0.00, -0.00, -1.00, 162.1, 447.0)">t</text><text xml:space="preserve" font-family="ArialMT" font-size="14.0" fill="#FFFFFF" transform="matrix(1.00, 0.00, -0.00, -1.00, 166.0, 447.0)">s</text><text xml:space="preserve" font-family="ArialMT" font-size="14.0" fill="#FFFFFF" transform="matrix(1.00, 0.00, -0.00, -1.00, 173.0, 447.0)">o</text><text xml:space="preserve" font-family="ArialMT" font-size="14.0" fill="#FFFFFF" transform="matrix(1.00, 0.00, -0.00, -1.00, 180.8, 447.0)">s</text><text xml:space="preserve" font-family="ArialMT" font-size="14.0" fill="#FFFFFF" transform="matrix(1.00, 0.00, -0.00, -1.00, 187.8, 447.0)">m</text><text xml:space="preserve" font-family="ArialMT" font-size="14.0" fill="#FFFFFF" transform="matrix(1.00, 0.00, -0.00, -1.00, 199.5, 447.0)">.</text><text xml:space="preserve" font-family="ArialMT" font-size="14.0" fill="#FFFFFF" transform="matrix(1.00, 0.00, -0.00, -1.00, 203.4, 447.0)">o</text><text xml:space="preserve" font-family="ArialMT" font-size="14.0" fill="#FFFFFF" transform="matrix(1.00, 0.00, -0.00, -1.00, 211.2, 447.0)">r</text><text xml:space="preserve" font-family="ArialMT" font-size="14.0" fill="#FFFFFF" transform="matrix(1.00, 0.00, -0.00, -1.00, 215.8, 447.0)">g</text></g></g><g><clipPath id="clip-76"><path d="M 106.4 228.5 L 228.1 228.5 L 228.1 270.4 L 106.4 270.4 Z M 106.4 228.5 "></path></clipPath><g clip-path="url(#clip-76)"><path d="M 107.8 236.4 L 107.8 262.5 C 107.8 266.1 110.7 269.0 114.3 269.0 L 220.2 269.0 C 223.8 269.0 226.8 266.1 226.8 262.5 L 226.8 236.4 C 226.8 232.8 223.8 229.9 220.2 229.9 L 114.3 229.9 C 110.7 229.9 107.8 232.8 107.8 236.4 Z M 107.8 236.4 " fill="#990A1A"></path><path d="M 0.0 32.6 L 0.0 6.5 C 0.0 2.9 2.9 0.0 6.5 0.0 L 112.5 0.0 C 116.1 0.0 119.0 2.9 119.0 6.5 L 119.0 32.6 C 119.0 36.2 116.1 39.1 112.5 39.1 L 6.5 39.1 C 2.9 39.1 0.0 36.2 0.0 32.6 Z M 0.0 32.6 " fill="none" stroke="#3464A4" stroke-width="0.75" stroke-linejoin="round" transform="matrix(1.00, 0.00, 0.00, -1.00, 107.8, 269.0)"></path></g></g><g><clipPath id="clip-77"><path d="M 129.4 229.8 L 260.7 229.8 L 260.7 268.7 L 129.4 268.7 Z M 129.4 229.8 "></path></clipPath><g clip-path="url(#clip-77)"><text xml:space="preserve" font-family="Arial-BoldMT" font-weight="bold" font-size="14.0" fill="#FFFFFF" transform="matrix(1.00, 0.00, -0.00, -1.00, 142.0, 252.0)">C</text><text xml:space="preserve" font-family="Arial-BoldMT" font-weight="bold" font-size="14.0" fill="#FFFFFF" transform="matrix(1.00, 0.00, -0.00, -1.00, 152.1, 252.0)">h</text><text xml:space="preserve" font-family="Arial-BoldMT" font-weight="bold" font-size="14.0" fill="#FFFFFF" transform="matrix(1.00, 0.00, -0.00, -1.00, 160.7, 252.0)">o</text><text xml:space="preserve" font-family="Arial-BoldMT" font-weight="bold" font-size="14.0" fill="#FFFFFF" transform="matrix(1.00, 0.00, -0.00, -1.00, 169.2, 252.0)">o</text><text xml:space="preserve" font-family="Arial-BoldMT" font-weight="bold" font-size="14.0" fill="#FFFFFF" transform="matrix(1.00, 0.00, -0.00, -1.00, 177.8, 252.0)">s</text><text xml:space="preserve" font-family="Arial-BoldMT" font-weight="bold" font-size="14.0" fill="#FFFFFF" transform="matrix(1.00, 0.00, -0.00, -1.00, 185.6, 252.0)">e</text><text xml:space="preserve" font-family="Arial-BoldMT" font-weight="bold" font-size="14.0" fill="#FFFFFF" transform="matrix(1.00, 0.00, -0.00, -1.00, 193.3, 252.0)"> </text><text xml:space="preserve" font-family="Arial-BoldMT" font-weight="bold" font-size="14.0" fill="#FFFFFF" transform="matrix(1.00, 0.00, -0.00, -1.00, 134.0, 237.0)">y</text><text xml:space="preserve" font-family="Arial-BoldMT" font-weight="bold" font-size="14.0" fill="#FFFFFF" transform="matrix(1.00, 0.00, -0.00, -1.00, 141.8, 237.0)">e</text><text xml:space="preserve" font-family="Arial-BoldMT" font-weight="bold" font-size="14.0" fill="#FFFFFF" transform="matrix(1.00, 0.00, -0.00, -1.00, 149.6, 237.0)">l</text><text xml:space="preserve" font-family="Arial-BoldMT" font-weight="bold" font-size="14.0" fill="#FFFFFF" transform="matrix(1.00, 0.00, -0.00, -1.00, 153.5, 237.0)">l</text><text xml:space="preserve" font-family="Arial-BoldMT" font-weight="bold" font-size="14.0" fill="#FFFFFF" transform="matrix(1.00, 0.00, -0.00, -1.00, 157.4, 237.0)">o</text><text xml:space="preserve" font-family="Arial-BoldMT" font-weight="bold" font-size="14.0" fill="#FFFFFF" transform="matrix(1.00, 0.00, -0.00, -1.00, 165.9, 237.0)">w</text><text xml:space="preserve" font-family="Arial-BoldMT" font-weight="bold" font-size="14.0" fill="#FFFFFF" transform="matrix(1.00, 0.00, -0.00, -1.00, 176.8, 237.0)"> </text><text xml:space="preserve" font-family="Arial-BoldMT" font-weight="bold" font-size="14.0" fill="#FFFFFF" transform="matrix(1.00, 0.00, -0.00, -1.00, 180.7, 237.0)">t</text><text xml:space="preserve" font-family="Arial-BoldMT" font-weight="bold" font-size="14.0" fill="#FFFFFF" transform="matrix(1.00, 0.00, -0.00, -1.00, 185.3, 237.0)">i</text><text xml:space="preserve" font-family="Arial-BoldMT" font-weight="bold" font-size="14.0" fill="#FFFFFF" transform="matrix(1.00, 0.00, -0.00, -1.00, 189.2, 237.0)">l</text><text xml:space="preserve" font-family="Arial-BoldMT" font-weight="bold" font-size="14.0" fill="#FFFFFF" transform="matrix(1.00, 0.00, -0.00, -1.00, 193.1, 237.0)">e</text></g></g><g><clipPath id="clip-78"><path d="M 106.4 132.1 L 228.1 132.1 L 228.1 174.0 L 106.4 174.0 Z M 106.4 132.1 "></path></clipPath><g clip-path="url(#clip-78)"><path d="M 107.8 140.0 L 107.8 166.1 C 107.8 169.7 110.7 172.6 114.3 172.6 L 220.2 172.6 C 223.8 172.6 226.8 169.7 226.8 166.1 L 226.8 140.0 C 226.8 136.4 223.8 133.5 220.2 133.5 L 114.3 133.5 C 110.7 133.5 107.8 136.4 107.8 140.0 Z M 107.8 140.0 " fill="#F7E91A"></path><path d="M 0.0 32.6 L 0.0 6.5 C 0.0 2.9 2.9 0.0 6.5 0.0 L 112.5 0.0 C 116.1 0.0 119.0 2.9 119.0 6.5 L 119.0 32.6 C 119.0 36.2 116.1 39.1 112.5 39.1 L 6.5 39.1 C 2.9 39.1 0.0 36.2 0.0 32.6 Z M 0.0 32.6 " fill="none" stroke="#3464A4" stroke-width="0.75" stroke-linejoin="round" transform="matrix(1.00, 0.00, 0.00, -1.00, 107.8, 172.6)"></path></g></g><g><clipPath id="clip-79"><path d="M 108.4 133.4 L 266.2 133.4 L 266.2 172.3 L 108.4 172.3 Z M 108.4 133.4 "></path></clipPath><g clip-path="url(#clip-79)"><text xml:space="preserve" font-family="Arial-BoldMT" font-weight="bold" font-size="14.0" fill="#000000" transform="matrix(1.00, 0.00, -0.00, -1.00, 151.0, 156.0)">S</text><text xml:space="preserve" font-family="Arial-BoldMT" font-weight="bold" font-size="14.0" fill="#000000" transform="matrix(1.00, 0.00, -0.00, -1.00, 160.3, 156.0)">t</text><text xml:space="preserve" font-family="Arial-BoldMT" font-weight="bold" font-size="14.0" fill="#000000" transform="matrix(1.00, 0.00, -0.00, -1.00, 165.0, 156.0)">a</text><text xml:space="preserve" font-family="Arial-BoldMT" font-weight="bold" font-size="14.0" fill="#000000" transform="matrix(1.00, 0.00, -0.00, -1.00, 172.8, 156.0)">r</text><text xml:space="preserve" font-family="Arial-BoldMT" font-weight="bold" font-size="14.0" fill="#000000" transform="matrix(1.00, 0.00, -0.00, -1.00, 178.2, 156.0)">t</text><text xml:space="preserve" font-family="Arial-BoldMT" font-weight="bold" font-size="14.0" fill="#000000" transform="matrix(1.00, 0.00, -0.00, -1.00, 182.9, 156.0)"> </text><text xml:space="preserve" font-family="Arial-BoldMT" font-weight="bold" font-size="14.0" fill="#000000" transform="matrix(1.00, 0.00, -0.00, -1.00, 186.8, 156.0)"> </text><text xml:space="preserve" font-family="Arial-BoldMT" font-weight="bold" font-size="14.0" fill="#000000" transform="matrix(1.00, 0.00, -0.00, -1.00, 113.0, 141.0)">v</text><text xml:space="preserve" font-family="Arial-BoldMT" font-weight="bold" font-size="14.0" fill="#000000" transform="matrix(1.00, 0.00, -0.00, -1.00, 120.8, 141.0)">a</text><text xml:space="preserve" font-family="Arial-BoldMT" font-weight="bold" font-size="14.0" fill="#000000" transform="matrix(1.00, 0.00, -0.00, -1.00, 128.6, 141.0)">l</text><text xml:space="preserve" font-family="Arial-BoldMT" font-weight="bold" font-size="14.0" fill="#000000" transform="matrix(1.00, 0.00, -0.00, -1.00, 132.5, 141.0)">i</text><text xml:space="preserve" font-family="Arial-BoldMT" font-weight="bold" font-size="14.0" fill="#000000" transform="matrix(1.00, 0.00, -0.00, -1.00, 136.4, 141.0)">d</text><text xml:space="preserve" font-family="Arial-BoldMT" font-weight="bold" font-size="14.0" fill="#000000" transform="matrix(1.00, 0.00, -0.00, -1.00, 144.9, 141.0)">a</text><text xml:space="preserve" font-family="Arial-BoldMT" font-weight="bold" font-size="14.0" fill="#000000" transform="matrix(1.00, 0.00, -0.00, -1.00, 152.7, 141.0)">t</text><text xml:space="preserve" font-family="Arial-BoldMT" font-weight="bold" font-size="14.0" fill="#000000" transform="matrix(1.00, 0.00, -0.00, -1.00, 157.4, 141.0)">i</text><text xml:space="preserve" font-family="Arial-BoldMT" font-weight="bold" font-size="14.0" fill="#000000" transform="matrix(1.00, 0.00, -0.00, -1.00, 161.2, 141.0)">n</text><text xml:space="preserve" font-family="Arial-BoldMT" font-weight="bold" font-size="14.0" fill="#000000" transform="matrix(1.00, 0.00, -0.00, -1.00, 169.8, 141.0)">g</text><text xml:space="preserve" font-family="Arial-BoldMT" font-weight="bold" font-size="14.0" fill="#000000" transform="matrix(1.00, 0.00, -0.00, -1.00, 178.3, 141.0)"> </text><text xml:space="preserve" font-family="Arial-BoldMT" font-weight="bold" font-size="14.0" fill="#000000" transform="matrix(1.00, 0.00, -0.00, -1.00, 182.2, 141.0)">J</text><text xml:space="preserve" font-family="Arial-BoldMT" font-weight="bold" font-size="14.0" fill="#000000" transform="matrix(1.00, 0.00, -0.00, -1.00, 190.0, 141.0)">O</text><text xml:space="preserve" font-family="Arial-BoldMT" font-weight="bold" font-size="14.0" fill="#000000" transform="matrix(1.00, 0.00, -0.00, -1.00, 200.9, 141.0)">S</text><text xml:space="preserve" font-family="Arial-BoldMT" font-weight="bold" font-size="14.0" fill="#000000" transform="matrix(1.00, 0.00, -0.00, -1.00, 210.2, 141.0)">M</text></g></g><g><clipPath id="clip-80"><path d="M 106.4 41.4 L 228.1 41.4 L 228.1 83.2 L 106.4 83.2 Z M 106.4 41.4 "></path></clipPath><g clip-path="url(#clip-80)"><path d="M 107.8 49.3 L 107.8 75.4 C 107.8 79.0 110.7 81.9 114.3 81.9 L 220.2 81.9 C 223.8 81.9 226.8 79.0 226.8 75.4 L 226.8 49.3 C 226.8 45.7 223.8 42.8 220.2 42.8 L 114.3 42.8 C 110.7 42.8 107.8 45.7 107.8 49.3 Z M 107.8 49.3 " fill="#F7E91A"></path><path d="M 0.0 32.6 L 0.0 6.5 C 0.0 2.9 2.9 0.0 6.5 0.0 L 112.5 0.0 C 116.1 0.0 119.0 2.9 119.0 6.5 L 119.0 32.6 C 119.0 36.2 116.1 39.1 112.5 39.1 L 6.5 39.1 C 2.9 39.1 0.0 36.2 0.0 32.6 Z M 0.0 32.6 " fill="none" stroke="#3464A4" stroke-width="0.75" stroke-linejoin="round" transform="matrix(1.00, 0.00, 0.00, -1.00, 107.8, 81.9)"></path></g></g><g><clipPath id="clip-81"><path d="M 120.8 50.2 L 213.7 50.2 L 213.7 74.0 L 120.8 74.0 Z M 120.8 50.2 "></path></clipPath><g clip-path="url(#clip-81)"><text xml:space="preserve" font-family="Arial-BoldMT" font-weight="bold" font-size="14.0" fill="#000000" transform="matrix(1.00, 0.00, -0.00, -1.00, 125.0, 58.0)">C</text><text xml:space="preserve" font-family="Arial-BoldMT" font-weight="bold" font-size="14.0" fill="#000000" transform="matrix(1.00, 0.00, -0.00, -1.00, 135.1, 58.0)">h</text><text xml:space="preserve" font-family="Arial-BoldMT" font-weight="bold" font-size="14.0" fill="#000000" transform="matrix(1.00, 0.00, -0.00, -1.00, 143.7, 58.0)">e</text><text xml:space="preserve" font-family="Arial-BoldMT" font-weight="bold" font-size="14.0" fill="#000000" transform="matrix(1.00, 0.00, -0.00, -1.00, 151.5, 58.0)">c</text><text xml:space="preserve" font-family="Arial-BoldMT" font-weight="bold" font-size="14.0" fill="#000000" transform="matrix(1.00, 0.00, -0.00, -1.00, 159.2, 58.0)">k</text><text xml:space="preserve" font-family="Arial-BoldMT" font-weight="bold" font-size="14.0" fill="#000000" transform="matrix(1.00, 0.00, -0.00, -1.00, 167.0, 58.0)"> </text><text xml:space="preserve" font-family="Arial-BoldMT" font-weight="bold" font-size="14.0" fill="#000000" transform="matrix(1.00, 0.00, -0.00, -1.00, 170.9, 58.0)">o</text><text xml:space="preserve" font-family="Arial-BoldMT" font-weight="bold" font-size="14.0" fill="#000000" transform="matrix(1.00, 0.00, -0.00, -1.00, 179.5, 58.0)">f</text><text xml:space="preserve" font-family="Arial-BoldMT" font-weight="bold" font-size="14.0" fill="#000000" transform="matrix(1.00, 0.00, -0.00, -1.00, 184.1, 58.0)">f</text><text xml:space="preserve" font-family="Arial-BoldMT" font-weight="bold" font-size="14.0" fill="#000000" transform="matrix(1.00, 0.00, -0.00, -1.00, 188.8, 58.0)">s</text><text xml:space="preserve" font-family="Arial-BoldMT" font-weight="bold" font-size="14.0" fill="#000000" transform="matrix(1.00, 0.00, -0.00, -1.00, 196.6, 58.0)">e</text><text xml:space="preserve" font-family="Arial-BoldMT" font-weight="bold" font-size="14.0" fill="#000000" transform="matrix(1.00, 0.00, -0.00, -1.00, 204.4, 58.0)">t</text></g></g><path d="M 153.9 407.1 L 160.6 407.1 L 160.6 433.5 L 173.9 433.5 L 173.9 407.1 L 180.6 407.1 L 167.2 393.8 Z M 153.9 407.1 " fill="#00B7FF"></path><path d="M 0.0 26.4 L 6.7 26.4 L 6.7 0.0 L 20.1 0.0 L 20.1 26.4 L 26.8 26.4 L 13.4 39.8 Z M 0.0 26.4 " fill="none" stroke="#000000" stroke-width="0.75" stroke-linejoin="round" transform="matrix(1.00, 0.00, 0.00, -1.00, 153.9, 433.5)"></path><path d="M 153.9 299.4 L 160.6 299.4 L 160.6 325.8 L 173.9 325.8 L 173.9 299.4 L 180.6 299.4 L 167.2 286.0 Z M 153.9 299.4 " fill="#00B7FF"></path><path d="M 0.0 26.4 L 6.7 26.4 L 6.7 0.0 L 20.1 0.0 L 20.1 26.4 L 26.8 26.4 L 13.4 39.8 Z M 0.0 26.4 " fill="none" stroke="#000000" stroke-width="0.75" stroke-linejoin="round" transform="matrix(1.00, 0.00, 0.00, -1.00, 153.9, 325.8)"></path><path d="M 153.9 191.6 L 160.6 191.6 L 160.6 218.0 L 173.9 218.0 L 173.9 191.6 L 180.6 191.6 L 167.2 178.2 Z M 153.9 191.6 " fill="#00B7FF"></path><path d="M 0.0 26.4 L 6.7 26.4 L 6.7 0.0 L 20.1 0.0 L 20.1 26.4 L 26.8 26.4 L 13.4 39.8 Z M 0.0 26.4 " fill="none" stroke="#000000" stroke-width="0.75" stroke-linejoin="round" transform="matrix(1.00, 0.00, 0.00, -1.00, 153.9, 218.0)"></path><image xlink:href="25C0A442FC5D8541B2E86B034BC1B81E.png" width="170.00" height="110.00" transform="matrix(1.00, 0.00, -0.00, -1.01, 516.0, 496.0)"></image><path d="M 147.4 101.1 L 154.1 101.1 L 154.1 121.6 L 167.5 121.6 L 167.5 101.1 L 174.2 101.1 L 160.8 87.6 Z M 147.4 101.1 " fill="#00B7FF"></path><path d="M 0.0 20.6 L 6.7 20.6 L 6.7 0.0 L 20.2 0.0 L 20.2 20.6 L 26.9 20.6 L 13.4 34.0 Z M 0.0 20.6 " fill="none" stroke="#000000" stroke-width="0.75" stroke-linejoin="round" transform="matrix(1.00, 0.00, 0.00, -1.00, 147.4, 121.6)"></path><g><clipPath id="clip-82"><path d="M 429.5 63.5 L 503.1 63.5 L 503.1 100.2 L 429.5 100.2 Z M 429.5 63.5 "></path></clipPath><g clip-path="url(#clip-82)"><path d="M 466.3 98.9 C 446.7 98.9 430.9 92.6 430.9 84.8 C 430.9 78.7 440.5 73.6 454.0 71.6 L 452.1 64.8 L 460.8 70.8 C 462.6 70.7 464.4 70.6 466.3 70.6 C 485.9 70.6 501.8 76.9 501.8 84.8 C 501.8 92.6 485.9 98.9 466.3 98.9 Z M 466.3 98.9 " fill="#FFE41A"></path><path d="M 35.4 0.0 C 15.9 0.0 0.0 6.3 0.0 14.1 C 0.0 20.2 9.6 25.3 23.1 27.3 L 21.2 34.0 L 29.9 28.0 C 31.7 28.1 33.6 28.2 35.4 28.2 C 55.0 28.2 70.9 21.9 70.9 14.1 C 70.9 6.3 55.0 0.0 35.4 0.0 Z M 35.4 0.0 " fill="none" stroke="#3464A4" stroke-width="0.75" stroke-linejoin="round" transform="matrix(1.00, 0.00, 0.00, -1.00, 430.9, 98.9)"></path></g></g><g><clipPath id="clip-83"><path d="M 449.8 68.9 L 482.8 68.9 L 482.8 100.0 L 449.8 100.0 Z M 449.8 68.9 "></path></clipPath><g clip-path="url(#clip-83)"><text xml:space="preserve" font-family="ArialMT" font-size="18.0" fill="#FF0000" transform="matrix(1.00, 0.00, -0.00, -1.00, 455.0, 78.0)">3</text><text xml:space="preserve" font-family="ArialMT" font-size="18.0" fill="#FF0000" transform="matrix(1.00, 0.00, -0.00, -1.00, 465.0, 78.0)">A</text></g></g><g><clipPath id="clip-84"><path d="M 684.6 516.9 L 758.2 516.9 L 758.2 553.9 L 684.6 553.9 Z M 684.6 516.9 "></path></clipPath><g clip-path="url(#clip-84)"><path d="M 721.4 552.5 C 701.9 552.5 686.0 546.1 686.0 538.3 C 686.0 532.2 695.6 527.1 709.1 525.1 L 707.2 518.3 L 715.9 524.3 C 717.7 524.2 719.6 524.1 721.4 524.1 C 741.0 524.1 756.9 530.5 756.9 538.3 C 756.9 546.1 741.0 552.5 721.4 552.5 Z M 721.4 552.5 " fill="#FFE41A"></path><path d="M 35.4 0.0 C 15.9 0.0 0.0 6.4 0.0 14.2 C 0.0 20.3 9.6 25.4 23.1 27.4 L 21.2 34.2 L 29.9 28.2 C 31.7 28.3 33.6 28.4 35.4 28.4 C 55.0 28.4 70.9 22.0 70.9 14.2 C 70.9 6.4 55.0 0.0 35.4 0.0 Z M 35.4 0.0 " fill="none" stroke="#3464A4" stroke-width="0.75" stroke-linejoin="round" transform="matrix(1.00, 0.00, 0.00, -1.00, 686.0, 552.5)"></path></g></g><g><clipPath id="clip-85"><path d="M 710.9 522.5 L 732.0 522.5 L 732.0 553.5 L 710.9 553.5 Z M 710.9 522.5 "></path></clipPath><g clip-path="url(#clip-85)"><text xml:space="preserve" font-family="ArialMT" font-size="18.0" fill="#FF0000" transform="matrix(1.00, 0.00, -0.00, -1.00, 716.0, 532.0)">3</text></g></g><image xlink:href="653AF7DCAF0EDC915A94565FEF902168.png" width="150.00" height="114.00" transform="matrix(0.99, 0.00, -0.00, -1.00, 624.0, 479.0)"></image></g></svg>